<svg width="488" height="123" viewBox="0 0 488 123" fill="none" xmlns="http://www.w3.org/2000/svg">
<path d="M479.553 53.9406C479.624 55.204 478.882 56.5309 477.288 57.9055C475.699 59.2761 473.303 60.6572 470.172 62.0263C463.911 64.7634 454.765 67.4287 443.398 69.8742C420.669 74.7644 389.107 78.7666 354.1 80.7193C319.093 82.6721 287.281 82.205 264.15 79.873C252.582 78.7068 243.196 77.0753 236.67 75.0514C233.405 74.0391 230.871 72.933 229.139 71.7477C227.402 70.5588 226.517 69.3228 226.447 68.0593C226.376 66.7959 227.118 65.4691 228.712 64.0944C230.301 62.7238 232.697 61.3428 235.828 59.9737C242.089 57.2365 251.235 54.5713 262.602 52.1258C285.331 47.2356 316.893 43.2334 351.9 41.2806C386.907 39.3279 418.719 39.795 441.85 42.127C453.418 43.2932 462.804 44.9247 469.33 46.9485C472.595 47.9609 475.129 49.0669 476.861 50.2523C478.598 51.4411 479.483 52.6772 479.553 53.9406Z" stroke="#FD00FE" stroke-width="0.5"/>
<path d="M27.756 11.046L22.815 30H17.226L14.202 17.526L11.07 30H5.481L0.675 11.046H5.616L8.343 24.843L11.718 11.046H16.794L20.034 24.843L22.788 11.046H27.756ZM44.2735 22.224C44.2735 22.656 44.2465 23.106 44.1925 23.574H33.7435C33.8155 24.51 34.1125 25.23 34.6345 25.734C35.1745 26.22 35.8315 26.463 36.6055 26.463C37.7575 26.463 38.5585 25.977 39.0085 25.005H43.9225C43.6705 25.995 43.2115 26.886 42.5455 27.678C41.8975 28.47 41.0785 29.091 40.0885 29.541C39.0985 29.991 37.9915 30.216 36.7675 30.216C35.2915 30.216 33.9775 29.901 32.8255 29.271C31.6735 28.641 30.7735 27.741 30.1255 26.571C29.4775 25.401 29.1535 24.033 29.1535 22.467C29.1535 20.901 29.4685 19.533 30.0985 18.363C30.7465 17.193 31.6465 16.293 32.7985 15.663C33.9505 15.033 35.2735 14.718 36.7675 14.718C38.2255 14.718 39.5215 15.024 40.6555 15.636C41.7895 16.248 42.6715 17.121 43.3015 18.255C43.9495 19.389 44.2735 20.712 44.2735 22.224ZM39.5485 21.009C39.5485 20.217 39.2785 19.587 38.7385 19.119C38.1985 18.651 37.5235 18.417 36.7135 18.417C35.9395 18.417 35.2825 18.642 34.7425 19.092C34.2205 19.542 33.8965 20.181 33.7705 21.009H39.5485ZM51.5128 22.44C51.5128 20.892 51.8008 19.533 52.3768 18.363C52.9708 17.193 53.7718 16.293 54.7798 15.663C55.7878 15.033 56.9128 14.718 58.1548 14.718C59.2168 14.718 60.1438 14.934 60.9358 15.366C61.7458 15.798 62.3668 16.365 62.7988 17.067V14.934H67.4158V30H62.7988V27.867C62.3488 28.569 61.7188 29.136 60.9088 29.568C60.1168 30 59.1898 30.216 58.1278 30.216C56.9038 30.216 55.7878 29.901 54.7798 29.271C53.7718 28.623 52.9708 27.714 52.3768 26.544C51.8008 25.356 51.5128 23.988 51.5128 22.44ZM62.7988 22.467C62.7988 21.315 62.4748 20.406 61.8268 19.74C61.1968 19.074 60.4228 18.741 59.5048 18.741C58.5868 18.741 57.8038 19.074 57.1558 19.74C56.5258 20.388 56.2108 21.288 56.2108 22.44C56.2108 23.592 56.5258 24.51 57.1558 25.194C57.8038 25.86 58.5868 26.193 59.5048 26.193C60.4228 26.193 61.1968 25.86 61.8268 25.194C62.4748 24.528 62.7988 23.619 62.7988 22.467ZM75.373 17.445C75.913 16.617 76.588 15.969 77.398 15.501C78.208 15.015 79.108 14.772 80.098 14.772V19.659H78.829C77.677 19.659 76.813 19.911 76.237 20.415C75.661 20.901 75.373 21.765 75.373 23.007V30H70.756V14.934H75.373V17.445ZM96.5069 22.224C96.5069 22.656 96.4799 23.106 96.4259 23.574H85.9769C86.0489 24.51 86.3459 25.23 86.8679 25.734C87.4079 26.22 88.0649 26.463 88.8389 26.463C89.9909 26.463 90.7919 25.977 91.2419 25.005H96.1559C95.9039 25.995 95.4449 26.886 94.7789 27.678C94.1309 28.47 93.3119 29.091 92.3219 29.541C91.3319 29.991 90.2249 30.216 89.0009 30.216C87.5249 30.216 86.2109 29.901 85.0589 29.271C83.9069 28.641 83.0069 27.741 82.3589 26.571C81.7109 25.401 81.3869 24.033 81.3869 22.467C81.3869 20.901 81.7019 19.533 82.3319 18.363C82.9799 17.193 83.8799 16.293 85.0319 15.663C86.1839 15.033 87.5069 14.718 89.0009 14.718C90.4589 14.718 91.7549 15.024 92.8889 15.636C94.0229 16.248 94.9049 17.121 95.5349 18.255C96.1829 19.389 96.5069 20.712 96.5069 22.224ZM91.7819 21.009C91.7819 20.217 91.5119 19.587 90.9719 19.119C90.4319 18.651 89.7569 18.417 88.9469 18.417C88.1729 18.417 87.5159 18.642 86.9759 19.092C86.4539 19.542 86.1299 20.181 86.0039 21.009H91.7819ZM103.881 20.496C103.881 18.624 104.286 16.959 105.096 15.501C105.906 14.025 107.031 12.882 108.471 12.072C109.929 11.244 111.576 10.83 113.412 10.83C115.662 10.83 117.588 11.424 119.19 12.612C120.792 13.8 121.863 15.42 122.403 17.472H117.327C116.949 16.68 116.409 16.077 115.707 15.663C115.023 15.249 114.24 15.042 113.358 15.042C111.936 15.042 110.784 15.537 109.902 16.527C109.02 17.517 108.579 18.84 108.579 20.496C108.579 22.152 109.02 23.475 109.902 24.465C110.784 25.455 111.936 25.95 113.358 25.95C114.24 25.95 115.023 25.743 115.707 25.329C116.409 24.915 116.949 24.312 117.327 23.52H122.403C121.863 25.572 120.792 27.192 119.19 28.38C117.588 29.55 115.662 30.135 113.412 30.135C111.576 30.135 109.929 29.73 108.471 28.92C107.031 28.092 105.906 26.949 105.096 25.491C104.286 24.033 103.881 22.368 103.881 20.496ZM132.089 30.216C130.613 30.216 129.281 29.901 128.093 29.271C126.923 28.641 125.996 27.741 125.312 26.571C124.646 25.401 124.313 24.033 124.313 22.467C124.313 20.919 124.655 19.56 125.339 18.39C126.023 17.202 126.959 16.293 128.147 15.663C129.335 15.033 130.667 14.718 132.143 14.718C133.619 14.718 134.951 15.033 136.139 15.663C137.327 16.293 138.263 17.202 138.947 18.39C139.631 19.56 139.973 20.919 139.973 22.467C139.973 24.015 139.622 25.383 138.92 26.571C138.236 27.741 137.291 28.641 136.085 29.271C134.897 29.901 133.565 30.216 132.089 30.216ZM132.089 26.22C132.971 26.22 133.718 25.896 134.33 25.248C134.96 24.6 135.275 23.673 135.275 22.467C135.275 21.261 134.969 20.334 134.357 19.686C133.763 19.038 133.025 18.714 132.143 18.714C131.243 18.714 130.496 19.038 129.902 19.686C129.308 20.316 129.011 21.243 129.011 22.467C129.011 23.673 129.299 24.6 129.875 25.248C130.469 25.896 131.207 26.22 132.089 26.22ZM161.646 14.772C163.518 14.772 165.003 15.339 166.101 16.473C167.217 17.607 167.775 19.182 167.775 21.198V30H163.185V21.819C163.185 20.847 162.924 20.1 162.402 19.578C161.898 19.038 161.196 18.768 160.296 18.768C159.396 18.768 158.685 19.038 158.163 19.578C157.659 20.1 157.407 20.847 157.407 21.819V30H152.817V21.819C152.817 20.847 152.556 20.1 152.034 19.578C151.53 19.038 150.828 18.768 149.928 18.768C149.028 18.768 148.317 19.038 147.795 19.578C147.291 20.1 147.039 20.847 147.039 21.819V30H142.422V14.934H147.039V16.824C147.507 16.194 148.119 15.699 148.875 15.339C149.631 14.961 150.486 14.772 151.44 14.772C152.574 14.772 153.582 15.015 154.464 15.501C155.364 15.987 156.066 16.68 156.57 17.58C157.092 16.752 157.803 16.077 158.703 15.555C159.603 15.033 160.584 14.772 161.646 14.772ZM190.228 14.772C192.1 14.772 193.585 15.339 194.683 16.473C195.799 17.607 196.357 19.182 196.357 21.198V30H191.767V21.819C191.767 20.847 191.506 20.1 190.984 19.578C190.48 19.038 189.778 18.768 188.878 18.768C187.978 18.768 187.267 19.038 186.745 19.578C186.241 20.1 185.989 20.847 185.989 21.819V30H181.399V21.819C181.399 20.847 181.138 20.1 180.616 19.578C180.112 19.038 179.41 18.768 178.51 18.768C177.61 18.768 176.899 19.038 176.377 19.578C175.873 20.1 175.621 20.847 175.621 21.819V30H171.004V14.934H175.621V16.824C176.089 16.194 176.701 15.699 177.457 15.339C178.213 14.961 179.068 14.772 180.022 14.772C181.156 14.772 182.164 15.015 183.046 15.501C183.946 15.987 184.648 16.68 185.152 17.58C185.674 16.752 186.385 16.077 187.285 15.555C188.185 15.033 189.166 14.772 190.228 14.772ZM201.908 13.368C201.098 13.368 200.432 13.134 199.91 12.666C199.406 12.18 199.154 11.586 199.154 10.884C199.154 10.164 199.406 9.57 199.91 9.102C200.432 8.616 201.098 8.373 201.908 8.373C202.7 8.373 203.348 8.616 203.852 9.102C204.374 9.57 204.635 10.164 204.635 10.884C204.635 11.586 204.374 12.18 203.852 12.666C203.348 13.134 202.7 13.368 201.908 13.368ZM204.203 14.934V30H199.586V14.934H204.203ZM215.946 26.085V30H213.597C211.923 30 210.618 29.595 209.682 28.785C208.746 27.957 208.278 26.616 208.278 24.762V18.768H206.442V14.934H208.278V11.262H212.895V14.934H215.919V18.768H212.895V24.816C212.895 25.266 213.003 25.59 213.219 25.788C213.435 25.986 213.795 26.085 214.299 26.085H215.946ZM226.915 26.085V30H224.566C222.892 30 221.587 29.595 220.651 28.785C219.715 27.957 219.247 26.616 219.247 24.762V18.768H217.411V14.934H219.247V11.262H223.864V14.934H226.888V18.768H223.864V24.816C223.864 25.266 223.972 25.59 224.188 25.788C224.404 25.986 224.764 26.085 225.268 26.085H226.915ZM243.688 22.224C243.688 22.656 243.662 23.106 243.608 23.574H233.159C233.231 24.51 233.528 25.23 234.05 25.734C234.59 26.22 235.247 26.463 236.021 26.463C237.173 26.463 237.974 25.977 238.424 25.005H243.338C243.086 25.995 242.627 26.886 241.961 27.678C241.313 28.47 240.494 29.091 239.504 29.541C238.514 29.991 237.407 30.216 236.183 30.216C234.707 30.216 233.393 29.901 232.241 29.271C231.089 28.641 230.189 27.741 229.541 26.571C228.893 25.401 228.569 24.033 228.569 22.467C228.569 20.901 228.884 19.533 229.514 18.363C230.162 17.193 231.062 16.293 232.214 15.663C233.366 15.033 234.689 14.718 236.183 14.718C237.641 14.718 238.937 15.024 240.071 15.636C241.205 16.248 242.087 17.121 242.717 18.255C243.365 19.389 243.688 20.712 243.688 22.224ZM238.964 21.009C238.964 20.217 238.694 19.587 238.154 19.119C237.614 18.651 236.939 18.417 236.129 18.417C235.355 18.417 234.698 18.642 234.158 19.092C233.636 19.542 233.312 20.181 233.186 21.009H238.964ZM245.206 22.44C245.206 20.892 245.494 19.533 246.07 18.363C246.664 17.193 247.465 16.293 248.473 15.663C249.481 15.033 250.606 14.718 251.848 14.718C252.838 14.718 253.738 14.925 254.548 15.339C255.376 15.753 256.024 16.311 256.492 17.013V10.02H261.109V30H256.492V27.84C256.06 28.56 255.439 29.136 254.629 29.568C253.837 30 252.91 30.216 251.848 30.216C250.606 30.216 249.481 29.901 248.473 29.271C247.465 28.623 246.664 27.714 246.07 26.544C245.494 25.356 245.206 23.988 245.206 22.44ZM256.492 22.467C256.492 21.315 256.168 20.406 255.52 19.74C254.89 19.074 254.116 18.741 253.198 18.741C252.28 18.741 251.497 19.074 250.849 19.74C250.219 20.388 249.904 21.288 249.904 22.44C249.904 23.592 250.219 24.51 250.849 25.194C251.497 25.86 252.28 26.193 253.198 26.193C254.116 26.193 254.89 25.86 255.52 25.194C256.168 24.528 256.492 23.619 256.492 22.467ZM278.568 26.085V30H276.219C274.545 30 273.24 29.595 272.304 28.785C271.368 27.957 270.9 26.616 270.9 24.762V18.768H269.064V14.934H270.9V11.262H275.517V14.934H278.541V18.768H275.517V24.816C275.517 25.266 275.625 25.59 275.841 25.788C276.057 25.986 276.417 26.085 276.921 26.085H278.568ZM287.998 30.216C286.522 30.216 285.19 29.901 284.002 29.271C282.832 28.641 281.905 27.741 281.221 26.571C280.555 25.401 280.222 24.033 280.222 22.467C280.222 20.919 280.564 19.56 281.248 18.39C281.932 17.202 282.868 16.293 284.056 15.663C285.244 15.033 286.576 14.718 288.052 14.718C289.528 14.718 290.86 15.033 292.048 15.663C293.236 16.293 294.172 17.202 294.856 18.39C295.54 19.56 295.882 20.919 295.882 22.467C295.882 24.015 295.531 25.383 294.829 26.571C294.145 27.741 293.2 28.641 291.994 29.271C290.806 29.901 289.474 30.216 287.998 30.216ZM287.998 26.22C288.88 26.22 289.627 25.896 290.239 25.248C290.869 24.6 291.184 23.673 291.184 22.467C291.184 21.261 290.878 20.334 290.266 19.686C289.672 19.038 288.934 18.714 288.052 18.714C287.152 18.714 286.405 19.038 285.811 19.686C285.217 20.316 284.92 21.243 284.92 22.467C284.92 23.673 285.208 24.6 285.784 25.248C286.378 25.896 287.116 26.22 287.998 26.22ZM308.67 11.046V30H304.053V11.046H308.67ZM331.24 14.772C333.112 14.772 334.597 15.339 335.695 16.473C336.811 17.607 337.369 19.182 337.369 21.198V30H332.779V21.819C332.779 20.847 332.518 20.1 331.996 19.578C331.492 19.038 330.79 18.768 329.89 18.768C328.99 18.768 328.279 19.038 327.757 19.578C327.253 20.1 327.001 20.847 327.001 21.819V30H322.411V21.819C322.411 20.847 322.15 20.1 321.628 19.578C321.124 19.038 320.422 18.768 319.522 18.768C318.622 18.768 317.911 19.038 317.389 19.578C316.885 20.1 316.633 20.847 316.633 21.819V30H312.016V14.934H316.633V16.824C317.101 16.194 317.713 15.699 318.469 15.339C319.225 14.961 320.08 14.772 321.034 14.772C322.168 14.772 323.176 15.015 324.058 15.501C324.958 15.987 325.66 16.68 326.164 17.58C326.686 16.752 327.397 16.077 328.297 15.555C329.197 15.033 330.178 14.772 331.24 14.772ZM345.215 17.067C345.665 16.365 346.286 15.798 347.078 15.366C347.87 14.934 348.797 14.718 349.859 14.718C351.101 14.718 352.226 15.033 353.234 15.663C354.242 16.293 355.034 17.193 355.61 18.363C356.204 19.533 356.501 20.892 356.501 22.44C356.501 23.988 356.204 25.356 355.61 26.544C355.034 27.714 354.242 28.623 353.234 29.271C352.226 29.901 351.101 30.216 349.859 30.216C348.815 30.216 347.888 30 347.078 29.568C346.286 29.136 345.665 28.578 345.215 27.894V37.182H340.598V14.934H345.215V17.067ZM351.803 22.44C351.803 21.288 351.479 20.388 350.831 19.74C350.201 19.074 349.418 18.741 348.482 18.741C347.564 18.741 346.781 19.074 346.133 19.74C345.503 20.406 345.188 21.315 345.188 22.467C345.188 23.619 345.503 24.528 346.133 25.194C346.781 25.86 347.564 26.193 348.482 26.193C349.4 26.193 350.183 25.86 350.831 25.194C351.479 24.51 351.803 23.592 351.803 22.44ZM363.54 17.445C364.08 16.617 364.755 15.969 365.565 15.501C366.375 15.015 367.275 14.772 368.265 14.772V19.659H366.996C365.844 19.659 364.98 19.911 364.404 20.415C363.828 20.901 363.54 21.765 363.54 23.007V30H358.923V14.934H363.54V17.445ZM377.33 30.216C375.854 30.216 374.522 29.901 373.334 29.271C372.164 28.641 371.237 27.741 370.553 26.571C369.887 25.401 369.554 24.033 369.554 22.467C369.554 20.919 369.896 19.56 370.58 18.39C371.264 17.202 372.2 16.293 373.388 15.663C374.576 15.033 375.908 14.718 377.384 14.718C378.86 14.718 380.192 15.033 381.38 15.663C382.568 16.293 383.504 17.202 384.188 18.39C384.872 19.56 385.214 20.919 385.214 22.467C385.214 24.015 384.863 25.383 384.161 26.571C383.477 27.741 382.532 28.641 381.326 29.271C380.138 29.901 378.806 30.216 377.33 30.216ZM377.33 26.22C378.212 26.22 378.959 25.896 379.571 25.248C380.201 24.6 380.516 23.673 380.516 22.467C380.516 21.261 380.21 20.334 379.598 19.686C379.004 19.038 378.266 18.714 377.384 18.714C376.484 18.714 375.737 19.038 375.143 19.686C374.549 20.316 374.252 21.243 374.252 22.467C374.252 23.673 374.54 24.6 375.116 25.248C375.71 25.896 376.448 26.22 377.33 26.22ZM394.44 25.68L397.707 14.934H402.621L397.275 30H391.578L386.232 14.934H391.173L394.44 25.68ZM406.887 13.368C406.077 13.368 405.411 13.134 404.889 12.666C404.385 12.18 404.133 11.586 404.133 10.884C404.133 10.164 404.385 9.57 404.889 9.102C405.411 8.616 406.077 8.373 406.887 8.373C407.679 8.373 408.327 8.616 408.831 9.102C409.353 9.57 409.614 10.164 409.614 10.884C409.614 11.586 409.353 12.18 408.831 12.666C408.327 13.134 407.679 13.368 406.887 13.368ZM409.182 14.934V30H404.565V14.934H409.182ZM421.708 14.772C423.472 14.772 424.876 15.348 425.92 16.5C426.982 17.634 427.513 19.2 427.513 21.198V30H422.923V21.819C422.923 20.811 422.662 20.028 422.14 19.47C421.618 18.912 420.916 18.633 420.034 18.633C419.152 18.633 418.45 18.912 417.928 19.47C417.406 20.028 417.145 20.811 417.145 21.819V30H412.528V14.934H417.145V16.932C417.613 16.266 418.243 15.744 419.035 15.366C419.827 14.97 420.718 14.772 421.708 14.772ZM436.445 14.718C437.507 14.718 438.434 14.934 439.226 15.366C440.036 15.798 440.657 16.365 441.089 17.067V14.934H445.706V29.973C445.706 31.359 445.427 32.61 444.869 33.726C444.329 34.86 443.492 35.76 442.358 36.426C441.242 37.092 439.847 37.425 438.173 37.425C435.941 37.425 434.132 36.894 432.746 35.832C431.36 34.788 430.568 33.366 430.37 31.566H434.933C435.077 32.142 435.419 32.592 435.959 32.916C436.499 33.258 437.165 33.429 437.957 33.429C438.911 33.429 439.667 33.15 440.225 32.592C440.801 32.052 441.089 31.179 441.089 29.973V27.84C440.639 28.542 440.018 29.118 439.226 29.568C438.434 30 437.507 30.216 436.445 30.216C435.203 30.216 434.078 29.901 433.07 29.271C432.062 28.623 431.261 27.714 430.667 26.544C430.091 25.356 429.803 23.988 429.803 22.44C429.803 20.892 430.091 19.533 430.667 18.363C431.261 17.193 432.062 16.293 433.07 15.663C434.078 15.033 435.203 14.718 436.445 14.718ZM441.089 22.467C441.089 21.315 440.765 20.406 440.117 19.74C439.487 19.074 438.713 18.741 437.795 18.741C436.877 18.741 436.094 19.074 435.446 19.74C434.816 20.388 434.501 21.288 434.501 22.44C434.501 23.592 434.816 24.51 435.446 25.194C436.094 25.86 436.877 26.193 437.795 26.193C438.713 26.193 439.487 25.86 440.117 25.194C440.765 24.528 441.089 23.619 441.089 22.467ZM10.071 67.085V71H7.722C6.048 71 4.743 70.595 3.807 69.785C2.871 68.957 2.403 67.616 2.403 65.762V59.768H0.567V55.934H2.403V52.262H7.02V55.934H10.044V59.768H7.02V65.816C7.02 66.266 7.128 66.59 7.344 66.788C7.56 66.986 7.92 67.085 8.424 67.085H10.071ZM21.9038 55.772C23.6318 55.772 25.0178 56.348 26.0618 57.5C27.1058 58.634 27.6278 60.2 27.6278 62.198V71H23.0378V62.819C23.0378 61.811 22.7768 61.028 22.2548 60.47C21.7328 59.912 21.0308 59.633 20.1488 59.633C19.2668 59.633 18.5648 59.912 18.0428 60.47C17.5208 61.028 17.2598 61.811 17.2598 62.819V71H12.6428V51.02H17.2598V57.959C17.7278 57.293 18.3668 56.762 19.1768 56.366C19.9868 55.97 20.8958 55.772 21.9038 55.772ZM45.0381 63.224C45.0381 63.656 45.0111 64.106 44.9571 64.574H34.5081C34.5801 65.51 34.8771 66.23 35.3991 66.734C35.9391 67.22 36.5961 67.463 37.3701 67.463C38.5221 67.463 39.3231 66.977 39.7731 66.005H44.6871C44.4351 66.995 43.9761 67.886 43.3101 68.678C42.6621 69.47 41.8431 70.091 40.8531 70.541C39.8631 70.991 38.7561 71.216 37.5321 71.216C36.0561 71.216 34.7421 70.901 33.5901 70.271C32.4381 69.641 31.5381 68.741 30.8901 67.571C30.2421 66.401 29.9181 65.033 29.9181 63.467C29.9181 61.901 30.2331 60.533 30.8631 59.363C31.5111 58.193 32.4111 57.293 33.5631 56.663C34.7151 56.033 36.0381 55.718 37.5321 55.718C38.9901 55.718 40.2861 56.024 41.4201 56.636C42.5541 57.248 43.4361 58.121 44.0661 59.255C44.7141 60.389 45.0381 61.712 45.0381 63.224ZM40.3131 62.009C40.3131 61.217 40.0431 60.587 39.5031 60.119C38.9631 59.651 38.2881 59.417 37.4781 59.417C36.7041 59.417 36.0471 59.642 35.5071 60.092C34.9851 60.542 34.6611 61.181 34.5351 62.009H40.3131ZM79.2775 52.046L74.3365 71H68.7475L65.7235 58.526L62.5915 71H57.0025L52.1965 52.046H57.1375L59.8645 65.843L63.2395 52.046H68.3155L71.5555 65.843L74.3095 52.046H79.2775ZM95.7949 63.224C95.7949 63.656 95.7679 64.106 95.7139 64.574H85.2649C85.3369 65.51 85.6339 66.23 86.1559 66.734C86.6959 67.22 87.3529 67.463 88.1269 67.463C89.2789 67.463 90.0799 66.977 90.5299 66.005H95.4439C95.1919 66.995 94.7329 67.886 94.0669 68.678C93.4189 69.47 92.5999 70.091 91.6099 70.541C90.6199 70.991 89.5129 71.216 88.2889 71.216C86.8129 71.216 85.4989 70.901 84.3469 70.271C83.1949 69.641 82.2949 68.741 81.6469 67.571C80.9989 66.401 80.6749 65.033 80.6749 63.467C80.6749 61.901 80.9899 60.533 81.6199 59.363C82.2679 58.193 83.1679 57.293 84.3199 56.663C85.4719 56.033 86.7949 55.718 88.2889 55.718C89.7469 55.718 91.0429 56.024 92.1769 56.636C93.3109 57.248 94.1929 58.121 94.8229 59.255C95.4709 60.389 95.7949 61.712 95.7949 63.224ZM91.0699 62.009C91.0699 61.217 90.7999 60.587 90.2599 60.119C89.7199 59.651 89.0449 59.417 88.2349 59.417C87.4609 59.417 86.8039 59.642 86.2639 60.092C85.7419 60.542 85.4179 61.181 85.2919 62.009H91.0699ZM102.848 51.02V71H98.2306V51.02H102.848ZM110.811 51.02V71H106.194V51.02H110.811ZM118.773 58.067C119.205 57.365 119.826 56.798 120.636 56.366C121.446 55.934 122.373 55.718 123.417 55.718C124.659 55.718 125.784 56.033 126.792 56.663C127.8 57.293 128.592 58.193 129.168 59.363C129.762 60.533 130.059 61.892 130.059 63.44C130.059 64.988 129.762 66.356 129.168 67.544C128.592 68.714 127.8 69.623 126.792 70.271C125.784 70.901 124.659 71.216 123.417 71.216C122.355 71.216 121.428 71.009 120.636 70.595C119.844 70.163 119.223 69.596 118.773 68.894V71H114.156V51.02H118.773V58.067ZM125.361 63.44C125.361 62.288 125.037 61.388 124.389 60.74C123.759 60.074 122.976 59.741 122.04 59.741C121.122 59.741 120.339 60.074 119.691 60.74C119.061 61.406 118.746 62.315 118.746 63.467C118.746 64.619 119.061 65.528 119.691 66.194C120.339 66.86 121.122 67.193 122.04 67.193C122.958 67.193 123.741 66.86 124.389 66.194C125.037 65.51 125.361 64.592 125.361 63.44ZM146.684 63.224C146.684 63.656 146.657 64.106 146.603 64.574H136.154C136.226 65.51 136.523 66.23 137.045 66.734C137.585 67.22 138.242 67.463 139.016 67.463C140.168 67.463 140.969 66.977 141.419 66.005H146.333C146.081 66.995 145.622 67.886 144.956 68.678C144.308 69.47 143.489 70.091 142.499 70.541C141.509 70.991 140.402 71.216 139.178 71.216C137.702 71.216 136.388 70.901 135.236 70.271C134.084 69.641 133.184 68.741 132.536 67.571C131.888 66.401 131.564 65.033 131.564 63.467C131.564 61.901 131.879 60.533 132.509 59.363C133.157 58.193 134.057 57.293 135.209 56.663C136.361 56.033 137.684 55.718 139.178 55.718C140.636 55.718 141.932 56.024 143.066 56.636C144.2 57.248 145.082 58.121 145.712 59.255C146.36 60.389 146.684 61.712 146.684 63.224ZM141.959 62.009C141.959 61.217 141.689 60.587 141.149 60.119C140.609 59.651 139.934 59.417 139.124 59.417C138.35 59.417 137.693 59.642 137.153 60.092C136.631 60.542 136.307 61.181 136.181 62.009H141.959ZM151.441 54.368C150.631 54.368 149.965 54.134 149.443 53.666C148.939 53.18 148.687 52.586 148.687 51.884C148.687 51.164 148.939 50.57 149.443 50.102C149.965 49.616 150.631 49.373 151.441 49.373C152.233 49.373 152.881 49.616 153.385 50.102C153.907 50.57 154.168 51.164 154.168 51.884C154.168 52.586 153.907 53.18 153.385 53.666C152.881 54.134 152.233 54.368 151.441 54.368ZM153.736 55.934V71H149.119V55.934H153.736ZM166.262 55.772C168.026 55.772 169.43 56.348 170.474 57.5C171.536 58.634 172.067 60.2 172.067 62.198V71H167.477V62.819C167.477 61.811 167.216 61.028 166.694 60.47C166.172 59.912 165.47 59.633 164.588 59.633C163.706 59.633 163.004 59.912 162.482 60.47C161.96 61.028 161.699 61.811 161.699 62.819V71H157.082V55.934H161.699V57.932C162.167 57.266 162.797 56.744 163.589 56.366C164.381 55.97 165.272 55.772 166.262 55.772ZM181 55.718C182.062 55.718 182.989 55.934 183.781 56.366C184.591 56.798 185.212 57.365 185.644 58.067V55.934H190.261V70.973C190.261 72.359 189.982 73.61 189.424 74.726C188.884 75.86 188.047 76.76 186.913 77.426C185.797 78.092 184.402 78.425 182.728 78.425C180.496 78.425 178.687 77.894 177.301 76.832C175.915 75.788 175.123 74.366 174.925 72.566H179.488C179.632 73.142 179.974 73.592 180.514 73.916C181.054 74.258 181.72 74.429 182.512 74.429C183.466 74.429 184.222 74.15 184.78 73.592C185.356 73.052 185.644 72.179 185.644 70.973V68.84C185.194 69.542 184.573 70.118 183.781 70.568C182.989 71 182.062 71.216 181 71.216C179.758 71.216 178.633 70.901 177.625 70.271C176.617 69.623 175.816 68.714 175.222 67.544C174.646 66.356 174.358 64.988 174.358 63.44C174.358 61.892 174.646 60.533 175.222 59.363C175.816 58.193 176.617 57.293 177.625 56.663C178.633 56.033 179.758 55.718 181 55.718ZM185.644 63.467C185.644 62.315 185.32 61.406 184.672 60.74C184.042 60.074 183.268 59.741 182.35 59.741C181.432 59.741 180.649 60.074 180.001 60.74C179.371 61.388 179.056 62.288 179.056 63.44C179.056 64.592 179.371 65.51 180.001 66.194C180.649 66.86 181.432 67.193 182.35 67.193C183.268 67.193 184.042 66.86 184.672 66.194C185.32 65.528 185.644 64.619 185.644 63.467ZM206.18 71.216C204.704 71.216 203.372 70.901 202.184 70.271C201.014 69.641 200.087 68.741 199.403 67.571C198.737 66.401 198.404 65.033 198.404 63.467C198.404 61.919 198.746 60.56 199.43 59.39C200.114 58.202 201.05 57.293 202.238 56.663C203.426 56.033 204.758 55.718 206.234 55.718C207.71 55.718 209.042 56.033 210.23 56.663C211.418 57.293 212.354 58.202 213.038 59.39C213.722 60.56 214.064 61.919 214.064 63.467C214.064 65.015 213.713 66.383 213.011 67.571C212.327 68.741 211.382 69.641 210.176 70.271C208.988 70.901 207.656 71.216 206.18 71.216ZM206.18 67.22C207.062 67.22 207.809 66.896 208.421 66.248C209.051 65.6 209.366 64.673 209.366 63.467C209.366 62.261 209.06 61.334 208.448 60.686C207.854 60.038 207.116 59.714 206.234 59.714C205.334 59.714 204.587 60.038 203.993 60.686C203.399 61.316 203.102 62.243 203.102 63.467C203.102 64.673 203.39 65.6 203.966 66.248C204.56 66.896 205.298 67.22 206.18 67.22ZM224.074 59.768H221.59V71H216.973V59.768H215.299V55.934H216.973V55.502C216.973 53.648 217.504 52.244 218.566 51.29C219.628 50.318 221.185 49.832 223.237 49.832C223.579 49.832 223.831 49.841 223.993 49.859V53.774C223.111 53.72 222.49 53.846 222.13 54.152C221.77 54.458 221.59 55.007 221.59 55.799V55.934H224.074V59.768ZM246.41 58.148C246.41 59.246 246.158 60.254 245.654 61.172C245.15 62.072 244.376 62.801 243.332 63.359C242.288 63.917 240.992 64.196 239.444 64.196H236.582V71H231.965V52.046H239.444C240.956 52.046 242.234 52.307 243.278 52.829C244.322 53.351 245.105 54.071 245.627 54.989C246.149 55.907 246.41 56.96 246.41 58.148ZM239.093 60.524C239.975 60.524 240.632 60.317 241.064 59.903C241.496 59.489 241.712 58.904 241.712 58.148C241.712 57.392 241.496 56.807 241.064 56.393C240.632 55.979 239.975 55.772 239.093 55.772H236.582V60.524H239.093ZM253.431 58.445C253.971 57.617 254.646 56.969 255.456 56.501C256.266 56.015 257.166 55.772 258.156 55.772V60.659H256.887C255.735 60.659 254.871 60.911 254.295 61.415C253.719 61.901 253.431 62.765 253.431 64.007V71H248.814V55.934H253.431V58.445ZM274.564 63.224C274.564 63.656 274.537 64.106 274.483 64.574H264.034C264.106 65.51 264.403 66.23 264.925 66.734C265.465 67.22 266.122 67.463 266.896 67.463C268.048 67.463 268.849 66.977 269.299 66.005H274.213C273.961 66.995 273.502 67.886 272.836 68.678C272.188 69.47 271.369 70.091 270.379 70.541C269.389 70.991 268.282 71.216 267.058 71.216C265.582 71.216 264.268 70.901 263.116 70.271C261.964 69.641 261.064 68.741 260.416 67.571C259.768 66.401 259.444 65.033 259.444 63.467C259.444 61.901 259.759 60.533 260.389 59.363C261.037 58.193 261.937 57.293 263.089 56.663C264.241 56.033 265.564 55.718 267.058 55.718C268.516 55.718 269.812 56.024 270.946 56.636C272.08 57.248 272.962 58.121 273.592 59.255C274.24 60.389 274.564 61.712 274.564 63.224ZM269.839 62.009C269.839 61.217 269.569 60.587 269.029 60.119C268.489 59.651 267.814 59.417 267.004 59.417C266.23 59.417 265.573 59.642 265.033 60.092C264.511 60.542 264.187 61.181 264.061 62.009H269.839ZM282.724 55.718C283.786 55.718 284.713 55.934 285.505 56.366C286.315 56.798 286.936 57.365 287.368 58.067V55.934H291.985V70.973C291.985 72.359 291.706 73.61 291.148 74.726C290.608 75.86 289.771 76.76 288.637 77.426C287.521 78.092 286.126 78.425 284.452 78.425C282.22 78.425 280.411 77.894 279.025 76.832C277.639 75.788 276.847 74.366 276.649 72.566H281.212C281.356 73.142 281.698 73.592 282.238 73.916C282.778 74.258 283.444 74.429 284.236 74.429C285.19 74.429 285.946 74.15 286.504 73.592C287.08 73.052 287.368 72.179 287.368 70.973V68.84C286.918 69.542 286.297 70.118 285.505 70.568C284.713 71 283.786 71.216 282.724 71.216C281.482 71.216 280.357 70.901 279.349 70.271C278.341 69.623 277.54 68.714 276.946 67.544C276.37 66.356 276.082 64.988 276.082 63.44C276.082 61.892 276.37 60.533 276.946 59.363C277.54 58.193 278.341 57.293 279.349 56.663C280.357 56.033 281.482 55.718 282.724 55.718ZM287.368 63.467C287.368 62.315 287.044 61.406 286.396 60.74C285.766 60.074 284.992 59.741 284.074 59.741C283.156 59.741 282.373 60.074 281.725 60.74C281.095 61.388 280.78 62.288 280.78 63.44C280.78 64.592 281.095 65.51 281.725 66.194C282.373 66.86 283.156 67.193 284.074 67.193C284.992 67.193 285.766 66.86 286.396 66.194C287.044 65.528 287.368 64.619 287.368 63.467ZM304.505 55.772C306.269 55.772 307.673 56.348 308.717 57.5C309.779 58.634 310.31 60.2 310.31 62.198V71H305.72V62.819C305.72 61.811 305.459 61.028 304.937 60.47C304.415 59.912 303.713 59.633 302.831 59.633C301.949 59.633 301.247 59.912 300.725 60.47C300.203 61.028 299.942 61.811 299.942 62.819V71H295.325V55.934H299.942V57.932C300.41 57.266 301.04 56.744 301.832 56.366C302.624 55.97 303.515 55.772 304.505 55.772ZM312.601 63.44C312.601 61.892 312.889 60.533 313.465 59.363C314.059 58.193 314.86 57.293 315.868 56.663C316.876 56.033 318.001 55.718 319.243 55.718C320.305 55.718 321.232 55.934 322.024 56.366C322.834 56.798 323.455 57.365 323.887 58.067V55.934H328.504V71H323.887V68.867C323.437 69.569 322.807 70.136 321.997 70.568C321.205 71 320.278 71.216 319.216 71.216C317.992 71.216 316.876 70.901 315.868 70.271C314.86 69.623 314.059 68.714 313.465 67.544C312.889 66.356 312.601 64.988 312.601 63.44ZM323.887 63.467C323.887 62.315 323.563 61.406 322.915 60.74C322.285 60.074 321.511 59.741 320.593 59.741C319.675 59.741 318.892 60.074 318.244 60.74C317.614 61.388 317.299 62.288 317.299 63.44C317.299 64.592 317.614 65.51 318.244 66.194C318.892 66.86 319.675 67.193 320.593 67.193C321.511 67.193 322.285 66.86 322.915 66.194C323.563 65.528 323.887 64.619 323.887 63.467ZM341.024 55.772C342.788 55.772 344.192 56.348 345.236 57.5C346.298 58.634 346.829 60.2 346.829 62.198V71H342.239V62.819C342.239 61.811 341.978 61.028 341.456 60.47C340.934 59.912 340.232 59.633 339.35 59.633C338.468 59.633 337.766 59.912 337.244 60.47C336.722 61.028 336.461 61.811 336.461 62.819V71H331.844V55.934H336.461V57.932C336.929 57.266 337.559 56.744 338.351 56.366C339.143 55.97 340.034 55.772 341.024 55.772ZM358.434 67.085V71H356.085C354.411 71 353.106 70.595 352.17 69.785C351.234 68.957 350.766 67.616 350.766 65.762V59.768H348.93V55.934H350.766V52.262H355.383V55.934H358.407V59.768H355.383V65.816C355.383 66.266 355.491 66.59 355.707 66.788C355.923 66.986 356.283 67.085 356.787 67.085H358.434ZM392.81 52.046L387.869 71H382.28L379.256 58.526L376.124 71H370.535L365.729 52.046H370.67L373.397 65.843L376.772 52.046H381.848L385.088 65.843L387.842 52.046H392.81ZM401.983 71.216C400.507 71.216 399.175 70.901 397.987 70.271C396.817 69.641 395.89 68.741 395.206 67.571C394.54 66.401 394.207 65.033 394.207 63.467C394.207 61.919 394.549 60.56 395.233 59.39C395.917 58.202 396.853 57.293 398.041 56.663C399.229 56.033 400.561 55.718 402.037 55.718C403.513 55.718 404.845 56.033 406.033 56.663C407.221 57.293 408.157 58.202 408.841 59.39C409.525 60.56 409.867 61.919 409.867 63.467C409.867 65.015 409.516 66.383 408.814 67.571C408.13 68.741 407.185 69.641 405.979 70.271C404.791 70.901 403.459 71.216 401.983 71.216ZM401.983 67.22C402.865 67.22 403.612 66.896 404.224 66.248C404.854 65.6 405.169 64.673 405.169 63.467C405.169 62.261 404.863 61.334 404.251 60.686C403.657 60.038 402.919 59.714 402.037 59.714C401.137 59.714 400.39 60.038 399.796 60.686C399.202 61.316 398.905 62.243 398.905 63.467C398.905 64.673 399.193 65.6 399.769 66.248C400.363 66.896 401.101 67.22 401.983 67.22ZM431.541 55.772C433.413 55.772 434.898 56.339 435.996 57.473C437.112 58.607 437.67 60.182 437.67 62.198V71H433.08V62.819C433.08 61.847 432.819 61.1 432.297 60.578C431.793 60.038 431.091 59.768 430.191 59.768C429.291 59.768 428.58 60.038 428.058 60.578C427.554 61.1 427.302 61.847 427.302 62.819V71H422.712V62.819C422.712 61.847 422.451 61.1 421.929 60.578C421.425 60.038 420.723 59.768 419.823 59.768C418.923 59.768 418.212 60.038 417.69 60.578C417.186 61.1 416.934 61.847 416.934 62.819V71H412.317V55.934H416.934V57.824C417.402 57.194 418.014 56.699 418.77 56.339C419.526 55.961 420.381 55.772 421.335 55.772C422.469 55.772 423.477 56.015 424.359 56.501C425.259 56.987 425.961 57.68 426.465 58.58C426.987 57.752 427.698 57.077 428.598 56.555C429.498 56.033 430.479 55.772 431.541 55.772ZM455.101 63.224C455.101 63.656 455.074 64.106 455.02 64.574H444.571C444.643 65.51 444.94 66.23 445.462 66.734C446.002 67.22 446.659 67.463 447.433 67.463C448.585 67.463 449.386 66.977 449.836 66.005H454.75C454.498 66.995 454.039 67.886 453.373 68.678C452.725 69.47 451.906 70.091 450.916 70.541C449.926 70.991 448.819 71.216 447.595 71.216C446.119 71.216 444.805 70.901 443.653 70.271C442.501 69.641 441.601 68.741 440.953 67.571C440.305 66.401 439.981 65.033 439.981 63.467C439.981 61.901 440.296 60.533 440.926 59.363C441.574 58.193 442.474 57.293 443.626 56.663C444.778 56.033 446.101 55.718 447.595 55.718C449.053 55.718 450.349 56.024 451.483 56.636C452.617 57.248 453.499 58.121 454.129 59.255C454.777 60.389 455.101 61.712 455.101 63.224ZM450.376 62.009C450.376 61.217 450.106 60.587 449.566 60.119C449.026 59.651 448.351 59.417 447.541 59.417C446.767 59.417 446.11 59.642 445.57 60.092C445.048 60.542 444.724 61.181 444.598 62.009H450.376ZM466.716 55.772C468.48 55.772 469.884 56.348 470.928 57.5C471.99 58.634 472.521 60.2 472.521 62.198V71H467.931V62.819C467.931 61.811 467.67 61.028 467.148 60.47C466.626 59.912 465.924 59.633 465.042 59.633C464.16 59.633 463.458 59.912 462.936 60.47C462.414 61.028 462.153 61.811 462.153 62.819V71H457.536V55.934H462.153V57.932C462.621 57.266 463.251 56.744 464.043 56.366C464.835 55.97 465.726 55.772 466.716 55.772ZM480.698 66.734L477.701 74.483H474.758L476.324 66.734H480.698ZM18.63 112H14.013L6.291 100.309V112H1.674V93.046H6.291L14.013 104.791V93.046H18.63V112ZM36.1787 104.224C36.1787 104.656 36.1517 105.106 36.0977 105.574H25.6487C25.7207 106.51 26.0177 107.23 26.5397 107.734C27.0797 108.22 27.7367 108.463 28.5107 108.463C29.6627 108.463 30.4637 107.977 30.9137 107.005H35.8277C35.5757 107.995 35.1167 108.886 34.4507 109.678C33.8027 110.47 32.9837 111.091 31.9937 111.541C31.0037 111.991 29.8967 112.216 28.6727 112.216C27.1967 112.216 25.8827 111.901 24.7307 111.271C23.5787 110.641 22.6787 109.741 22.0307 108.571C21.3827 107.401 21.0587 106.033 21.0587 104.467C21.0587 102.901 21.3737 101.533 22.0037 100.363C22.6517 99.193 23.5517 98.293 24.7037 97.663C25.8557 97.033 27.1787 96.718 28.6727 96.718C30.1307 96.718 31.4267 97.024 32.5607 97.636C33.6947 98.248 34.5767 99.121 35.2067 100.255C35.8547 101.389 36.1787 102.712 36.1787 104.224ZM31.4537 103.009C31.4537 102.217 31.1837 101.587 30.6437 101.119C30.1037 100.651 29.4287 100.417 28.6187 100.417C27.8447 100.417 27.1877 100.642 26.6477 101.092C26.1257 101.542 25.8017 102.181 25.6757 103.009H31.4537ZM60.2414 96.934L56.1644 112H51.0614L48.6854 102.226L46.2284 112H41.1524L37.0484 96.934H41.6654L43.7984 107.707L46.3364 96.934H51.2234L53.7884 107.653L55.8944 96.934H60.2414ZM89.1888 93.046V112H84.5718V100.633L80.3328 112H76.6068L72.3408 100.606V112H67.7238V93.046H73.1778L78.4968 106.168L83.7618 93.046H89.1888ZM99.367 112.216C97.891 112.216 96.559 111.901 95.371 111.271C94.201 110.641 93.274 109.741 92.59 108.571C91.924 107.401 91.591 106.033 91.591 104.467C91.591 102.919 91.933 101.56 92.617 100.39C93.301 99.202 94.237 98.293 95.425 97.663C96.613 97.033 97.945 96.718 99.421 96.718C100.897 96.718 102.229 97.033 103.417 97.663C104.605 98.293 105.541 99.202 106.225 100.39C106.909 101.56 107.251 102.919 107.251 104.467C107.251 106.015 106.9 107.383 106.198 108.571C105.514 109.741 104.569 110.641 103.363 111.271C102.175 111.901 100.843 112.216 99.367 112.216ZM99.367 108.22C100.249 108.22 100.996 107.896 101.608 107.248C102.238 106.6 102.553 105.673 102.553 104.467C102.553 103.261 102.247 102.334 101.635 101.686C101.041 101.038 100.303 100.714 99.421 100.714C98.521 100.714 97.774 101.038 97.18 101.686C96.586 102.316 96.289 103.243 96.289 104.467C96.289 105.673 96.577 106.6 97.153 107.248C97.747 107.896 98.485 108.22 99.367 108.22ZM118.097 108.085V112H115.748C114.074 112 112.769 111.595 111.833 110.785C110.897 109.957 110.429 108.616 110.429 106.762V100.768H108.593V96.934H110.429V93.262H115.046V96.934H118.07V100.768H115.046V106.816C115.046 107.266 115.154 107.59 115.37 107.788C115.586 107.986 115.946 108.085 116.45 108.085H118.097ZM129.93 96.772C131.658 96.772 133.044 97.348 134.088 98.5C135.132 99.634 135.654 101.2 135.654 103.198V112H131.064V103.819C131.064 102.811 130.803 102.028 130.281 101.47C129.759 100.912 129.057 100.633 128.175 100.633C127.293 100.633 126.591 100.912 126.069 101.47C125.547 102.028 125.286 102.811 125.286 103.819V112H120.669V92.02H125.286V98.959C125.754 98.293 126.393 97.762 127.203 97.366C128.013 96.97 128.922 96.772 129.93 96.772ZM153.064 104.224C153.064 104.656 153.037 105.106 152.983 105.574H142.534C142.606 106.51 142.903 107.23 143.425 107.734C143.965 108.22 144.622 108.463 145.396 108.463C146.548 108.463 147.349 107.977 147.799 107.005H152.713C152.461 107.995 152.002 108.886 151.336 109.678C150.688 110.47 149.869 111.091 148.879 111.541C147.889 111.991 146.782 112.216 145.558 112.216C144.082 112.216 142.768 111.901 141.616 111.271C140.464 110.641 139.564 109.741 138.916 108.571C138.268 107.401 137.944 106.033 137.944 104.467C137.944 102.901 138.259 101.533 138.889 100.363C139.537 99.193 140.437 98.293 141.589 97.663C142.741 97.033 144.064 96.718 145.558 96.718C147.016 96.718 148.312 97.024 149.446 97.636C150.58 98.248 151.462 99.121 152.092 100.255C152.74 101.389 153.064 102.712 153.064 104.224ZM148.339 103.009C148.339 102.217 148.069 101.587 147.529 101.119C146.989 100.651 146.314 100.417 145.504 100.417C144.73 100.417 144.073 100.642 143.533 101.092C143.011 101.542 142.687 102.181 142.561 103.009H148.339ZM160.117 99.445C160.657 98.617 161.332 97.969 162.142 97.501C162.952 97.015 163.852 96.772 164.842 96.772V101.659H163.573C162.421 101.659 161.557 101.911 160.981 102.415C160.405 102.901 160.117 103.765 160.117 105.007V112H155.5V96.934H160.117V99.445ZM173.178 112.216C171.864 112.216 170.694 111.991 169.668 111.541C168.642 111.091 167.832 110.479 167.238 109.705C166.644 108.913 166.311 108.031 166.239 107.059H170.802C170.856 107.581 171.099 108.004 171.531 108.328C171.963 108.652 172.494 108.814 173.124 108.814C173.7 108.814 174.141 108.706 174.447 108.49C174.771 108.256 174.933 107.959 174.933 107.599C174.933 107.167 174.708 106.852 174.258 106.654C173.808 106.438 173.079 106.204 172.071 105.952C170.991 105.7 170.091 105.439 169.371 105.169C168.651 104.881 168.03 104.44 167.508 103.846C166.986 103.234 166.725 102.415 166.725 101.389C166.725 100.525 166.959 99.742 167.427 99.04C167.913 98.32 168.615 97.753 169.533 97.339C170.469 96.925 171.576 96.718 172.854 96.718C174.744 96.718 176.229 97.186 177.309 98.122C178.407 99.058 179.037 100.3 179.199 101.848H174.933C174.861 101.326 174.627 100.912 174.231 100.606C173.853 100.3 173.349 100.147 172.719 100.147C172.179 100.147 171.765 100.255 171.477 100.471C171.189 100.669 171.045 100.948 171.045 101.308C171.045 101.74 171.27 102.064 171.72 102.28C172.188 102.496 172.908 102.712 173.88 102.928C174.996 103.216 175.905 103.504 176.607 103.792C177.309 104.062 177.921 104.512 178.443 105.142C178.983 105.754 179.262 106.582 179.28 107.626C179.28 108.508 179.028 109.3 178.524 110.002C178.038 110.686 177.327 111.226 176.391 111.622C175.473 112.018 174.402 112.216 173.178 112.216ZM187.073 107.734L184.076 115.483H181.133L182.699 107.734H187.073ZM200.195 93.046V112H195.578V93.046H200.195ZM212.721 96.772C214.485 96.772 215.889 97.348 216.933 98.5C217.995 99.634 218.526 101.2 218.526 103.198V112H213.936V103.819C213.936 102.811 213.675 102.028 213.153 101.47C212.631 100.912 211.929 100.633 211.047 100.633C210.165 100.633 209.463 100.912 208.941 101.47C208.419 102.028 208.158 102.811 208.158 103.819V112H203.541V96.934H208.158V98.932C208.626 98.266 209.256 97.744 210.048 97.366C210.84 96.97 211.731 96.772 212.721 96.772ZM229.295 100.768H226.811V112H222.194V100.768H220.52V96.934H222.194V96.502C222.194 94.648 222.725 93.244 223.787 92.29C224.849 91.318 226.406 90.832 228.458 90.832C228.8 90.832 229.052 90.841 229.214 90.859V94.774C228.332 94.72 227.711 94.846 227.351 95.152C226.991 95.458 226.811 96.007 226.811 96.799V96.934H229.295V100.768ZM230.546 104.44C230.546 102.892 230.834 101.533 231.41 100.363C232.004 99.193 232.805 98.293 233.813 97.663C234.821 97.033 235.946 96.718 237.188 96.718C238.25 96.718 239.177 96.934 239.969 97.366C240.779 97.798 241.4 98.365 241.832 99.067V96.934H246.449V112H241.832V109.867C241.382 110.569 240.752 111.136 239.942 111.568C239.15 112 238.223 112.216 237.161 112.216C235.937 112.216 234.821 111.901 233.813 111.271C232.805 110.623 232.004 109.714 231.41 108.544C230.834 107.356 230.546 105.988 230.546 104.44ZM241.832 104.467C241.832 103.315 241.508 102.406 240.86 101.74C240.23 101.074 239.456 100.741 238.538 100.741C237.62 100.741 236.837 101.074 236.189 101.74C235.559 102.388 235.244 103.288 235.244 104.44C235.244 105.592 235.559 106.51 236.189 107.194C236.837 107.86 237.62 108.193 238.538 108.193C239.456 108.193 240.23 107.86 240.86 107.194C241.508 106.528 241.832 105.619 241.832 104.467ZM258.969 96.772C260.733 96.772 262.137 97.348 263.181 98.5C264.243 99.634 264.774 101.2 264.774 103.198V112H260.184V103.819C260.184 102.811 259.923 102.028 259.401 101.47C258.879 100.912 258.177 100.633 257.295 100.633C256.413 100.633 255.711 100.912 255.189 101.47C254.667 102.028 254.406 102.811 254.406 103.819V112H249.789V96.934H254.406V98.932C254.874 98.266 255.504 97.744 256.296 97.366C257.088 96.97 257.979 96.772 258.969 96.772ZM276.38 108.085V112H274.031C272.357 112 271.052 111.595 270.116 110.785C269.18 109.957 268.712 108.616 268.712 106.762V100.768H266.876V96.934H268.712V93.262H273.329V96.934H276.353V100.768H273.329V106.816C273.329 107.266 273.437 107.59 273.653 107.788C273.869 107.986 274.229 108.085 274.733 108.085H276.38ZM285.08 112.216C283.766 112.216 282.596 111.991 281.57 111.541C280.544 111.091 279.734 110.479 279.14 109.705C278.546 108.913 278.213 108.031 278.141 107.059H282.704C282.758 107.581 283.001 108.004 283.433 108.328C283.865 108.652 284.396 108.814 285.026 108.814C285.602 108.814 286.043 108.706 286.349 108.49C286.673 108.256 286.835 107.959 286.835 107.599C286.835 107.167 286.61 106.852 286.16 106.654C285.71 106.438 284.981 106.204 283.973 105.952C282.893 105.7 281.993 105.439 281.273 105.169C280.553 104.881 279.932 104.44 279.41 103.846C278.888 103.234 278.627 102.415 278.627 101.389C278.627 100.525 278.861 99.742 279.329 99.04C279.815 98.32 280.517 97.753 281.435 97.339C282.371 96.925 283.478 96.718 284.756 96.718C286.646 96.718 288.131 97.186 289.211 98.122C290.309 99.058 290.939 100.3 291.101 101.848H286.835C286.763 101.326 286.529 100.912 286.133 100.606C285.755 100.3 285.251 100.147 284.621 100.147C284.081 100.147 283.667 100.255 283.379 100.471C283.091 100.669 282.947 100.948 282.947 101.308C282.947 101.74 283.172 102.064 283.622 102.28C284.09 102.496 284.81 102.712 285.782 102.928C286.898 103.216 287.807 103.504 288.509 103.792C289.211 104.062 289.823 104.512 290.345 105.142C290.885 105.754 291.164 106.582 291.182 107.626C291.182 108.508 290.93 109.3 290.426 110.002C289.94 110.686 289.229 111.226 288.293 111.622C287.375 112.018 286.304 112.216 285.08 112.216ZM298.811 104.44C298.811 102.892 299.099 101.533 299.675 100.363C300.269 99.193 301.07 98.293 302.078 97.663C303.086 97.033 304.211 96.718 305.453 96.718C306.515 96.718 307.442 96.934 308.234 97.366C309.044 97.798 309.665 98.365 310.097 99.067V96.934H314.714V112H310.097V109.867C309.647 110.569 309.017 111.136 308.207 111.568C307.415 112 306.488 112.216 305.426 112.216C304.202 112.216 303.086 111.901 302.078 111.271C301.07 110.623 300.269 109.714 299.675 108.544C299.099 107.356 298.811 105.988 298.811 104.44ZM310.097 104.467C310.097 103.315 309.773 102.406 309.125 101.74C308.495 101.074 307.721 100.741 306.803 100.741C305.885 100.741 305.102 101.074 304.454 101.74C303.824 102.388 303.509 103.288 303.509 104.44C303.509 105.592 303.824 106.51 304.454 107.194C305.102 107.86 305.885 108.193 306.803 108.193C307.721 108.193 308.495 107.86 309.125 107.194C309.773 106.528 310.097 105.619 310.097 104.467ZM327.234 96.772C328.998 96.772 330.402 97.348 331.446 98.5C332.508 99.634 333.039 101.2 333.039 103.198V112H328.449V103.819C328.449 102.811 328.188 102.028 327.666 101.47C327.144 100.912 326.442 100.633 325.56 100.633C324.678 100.633 323.976 100.912 323.454 101.47C322.932 102.028 322.671 102.811 322.671 103.819V112H318.054V96.934H322.671V98.932C323.139 98.266 323.769 97.744 324.561 97.366C325.353 96.97 326.244 96.772 327.234 96.772ZM335.329 104.44C335.329 102.892 335.617 101.533 336.193 100.363C336.787 99.193 337.588 98.293 338.596 97.663C339.604 97.033 340.729 96.718 341.971 96.718C342.961 96.718 343.861 96.925 344.671 97.339C345.499 97.753 346.147 98.311 346.615 99.013V92.02H351.232V112H346.615V109.84C346.183 110.56 345.562 111.136 344.752 111.568C343.96 112 343.033 112.216 341.971 112.216C340.729 112.216 339.604 111.901 338.596 111.271C337.588 110.623 336.787 109.714 336.193 108.544C335.617 107.356 335.329 105.988 335.329 104.44ZM346.615 104.467C346.615 103.315 346.291 102.406 345.643 101.74C345.013 101.074 344.239 100.741 343.321 100.741C342.403 100.741 341.62 101.074 340.972 101.74C340.342 102.388 340.027 103.288 340.027 104.44C340.027 105.592 340.342 106.51 340.972 107.194C341.62 107.86 342.403 108.193 343.321 108.193C344.239 108.193 345.013 107.86 345.643 107.194C346.291 106.528 346.615 105.619 346.615 104.467ZM359.511 102.496C359.511 100.624 359.916 98.959 360.726 97.501C361.536 96.025 362.661 94.882 364.101 94.072C365.559 93.244 367.206 92.83 369.042 92.83C371.292 92.83 373.218 93.424 374.82 94.612C376.422 95.8 377.493 97.42 378.033 99.472H372.957C372.579 98.68 372.039 98.077 371.337 97.663C370.653 97.249 369.87 97.042 368.988 97.042C367.566 97.042 366.414 97.537 365.532 98.527C364.65 99.517 364.209 100.84 364.209 102.496C364.209 104.152 364.65 105.475 365.532 106.465C366.414 107.455 367.566 107.95 368.988 107.95C369.87 107.95 370.653 107.743 371.337 107.329C372.039 106.915 372.579 106.312 372.957 105.52H378.033C377.493 107.572 376.422 109.192 374.82 110.38C373.218 111.55 371.292 112.135 369.042 112.135C367.206 112.135 365.559 111.73 364.101 110.92C362.661 110.092 361.536 108.949 360.726 107.491C359.916 106.033 359.511 104.368 359.511 102.496ZM390.122 96.772C391.85 96.772 393.236 97.348 394.28 98.5C395.324 99.634 395.846 101.2 395.846 103.198V112H391.256V103.819C391.256 102.811 390.995 102.028 390.473 101.47C389.951 100.912 389.249 100.633 388.367 100.633C387.485 100.633 386.783 100.912 386.261 101.47C385.739 102.028 385.478 102.811 385.478 103.819V112H380.861V92.02H385.478V98.959C385.946 98.293 386.585 97.762 387.395 97.366C388.205 96.97 389.114 96.772 390.122 96.772ZM401.376 95.368C400.566 95.368 399.9 95.134 399.378 94.666C398.874 94.18 398.622 93.586 398.622 92.884C398.622 92.164 398.874 91.57 399.378 91.102C399.9 90.616 400.566 90.373 401.376 90.373C402.168 90.373 402.816 90.616 403.32 91.102C403.842 91.57 404.103 92.164 404.103 92.884C404.103 93.586 403.842 94.18 403.32 94.666C402.816 95.134 402.168 95.368 401.376 95.368ZM403.671 96.934V112H399.054V96.934H403.671ZM411.634 92.02V112H407.017V92.02H411.634ZM414.062 104.44C414.062 102.892 414.35 101.533 414.926 100.363C415.52 99.193 416.321 98.293 417.329 97.663C418.337 97.033 419.462 96.718 420.704 96.718C421.694 96.718 422.594 96.925 423.404 97.339C424.232 97.753 424.88 98.311 425.348 99.013V92.02H429.965V112H425.348V109.84C424.916 110.56 424.295 111.136 423.485 111.568C422.693 112 421.766 112.216 420.704 112.216C419.462 112.216 418.337 111.901 417.329 111.271C416.321 110.623 415.52 109.714 414.926 108.544C414.35 107.356 414.062 105.988 414.062 104.44ZM425.348 104.467C425.348 103.315 425.024 102.406 424.376 101.74C423.746 101.074 422.972 100.741 422.054 100.741C421.136 100.741 420.353 101.074 419.705 101.74C419.075 102.388 418.76 103.288 418.76 104.44C418.76 105.592 419.075 106.51 419.705 107.194C420.353 107.86 421.136 108.193 422.054 108.193C422.972 108.193 423.746 107.86 424.376 107.194C425.024 106.528 425.348 105.619 425.348 104.467ZM437.922 99.445C438.462 98.617 439.137 97.969 439.947 97.501C440.757 97.015 441.657 96.772 442.647 96.772V101.659H441.378C440.226 101.659 439.362 101.911 438.786 102.415C438.21 102.901 437.922 103.765 437.922 105.007V112H433.305V96.934H437.922V99.445ZM459.056 104.224C459.056 104.656 459.029 105.106 458.975 105.574H448.526C448.598 106.51 448.895 107.23 449.417 107.734C449.957 108.22 450.614 108.463 451.388 108.463C452.54 108.463 453.341 107.977 453.791 107.005H458.705C458.453 107.995 457.994 108.886 457.328 109.678C456.68 110.47 455.861 111.091 454.871 111.541C453.881 111.991 452.774 112.216 451.55 112.216C450.074 112.216 448.76 111.901 447.608 111.271C446.456 110.641 445.556 109.741 444.908 108.571C444.26 107.401 443.936 106.033 443.936 104.467C443.936 102.901 444.251 101.533 444.881 100.363C445.529 99.193 446.429 98.293 447.581 97.663C448.733 97.033 450.056 96.718 451.55 96.718C453.008 96.718 454.304 97.024 455.438 97.636C456.572 98.248 457.454 99.121 458.084 100.255C458.732 101.389 459.056 102.712 459.056 104.224ZM454.331 103.009C454.331 102.217 454.061 101.587 453.521 101.119C452.981 100.651 452.306 100.417 451.496 100.417C450.722 100.417 450.065 100.642 449.525 101.092C449.003 101.542 448.679 102.181 448.553 103.009H454.331ZM470.671 96.772C472.435 96.772 473.839 97.348 474.883 98.5C475.945 99.634 476.476 101.2 476.476 103.198V112H471.886V103.819C471.886 102.811 471.625 102.028 471.103 101.47C470.581 100.912 469.879 100.633 468.997 100.633C468.115 100.633 467.413 100.912 466.891 101.47C466.369 102.028 466.108 102.811 466.108 103.819V112H461.491V96.934H466.108V98.932C466.576 98.266 467.206 97.744 467.998 97.366C468.79 96.97 469.681 96.772 470.671 96.772Z" fill="black"/>
</svg>
