<svg width="418" height="98" viewBox="0 0 418 98" fill="none" xmlns="http://www.w3.org/2000/svg">
<path d="M359.298 31.4457C359.442 35.6434 356.241 40.0138 350.148 44.3266C344.071 48.6287 335.19 52.8195 324.149 56.6662C302.069 64.3582 271.404 70.6548 237.389 73.7271C203.373 76.7994 172.466 76.0641 149.995 72.3961C138.757 70.5617 129.644 67.9961 123.309 64.8151C116.958 61.6262 113.476 57.8595 113.332 53.6618C113.187 49.464 116.388 45.0936 122.481 40.7808C128.558 36.4788 137.439 32.2879 148.481 28.4413C170.56 20.7493 201.226 14.4527 235.241 11.3804C269.256 8.30807 300.163 9.0433 322.634 12.7114C333.872 14.5457 342.985 17.1114 349.32 20.2923C355.671 23.4812 359.153 27.2479 359.298 31.4457Z" stroke="white" stroke-width="0.5"/>
<path d="M8.125 35.45C9.975 35.45 11.5917 35.8167 12.975 36.55C14.3583 37.2833 15.425 38.3167 16.175 39.65C16.9417 40.9667 17.325 42.4917 17.325 44.225C17.325 45.9417 16.9417 47.4667 16.175 48.8C15.425 50.1333 14.35 51.1667 12.95 51.9C11.5667 52.6333 9.95833 53 8.125 53H1.55V35.45H8.125ZM7.85 49.3C9.46667 49.3 10.725 48.8583 11.625 47.975C12.525 47.0917 12.975 45.8417 12.975 44.225C12.975 42.6083 12.525 41.35 11.625 40.45C10.725 39.55 9.46667 39.1 7.85 39.1H5.825V49.3H7.85ZM21.8641 37.6C21.1141 37.6 20.4974 37.3833 20.0141 36.95C19.5474 36.5 19.3141 35.95 19.3141 35.3C19.3141 34.6333 19.5474 34.0833 20.0141 33.65C20.4974 33.2 21.1141 32.975 21.8641 32.975C22.5974 32.975 23.1974 33.2 23.6641 33.65C24.1474 34.0833 24.3891 34.6333 24.3891 35.3C24.3891 35.95 24.1474 36.5 23.6641 36.95C23.1974 37.3833 22.5974 37.6 21.8641 37.6ZM23.9891 39.05V53H19.7141V39.05H23.9891ZM32.7621 53.2C31.5454 53.2 30.4621 52.9917 29.5121 52.575C28.5621 52.1583 27.8121 51.5917 27.2621 50.875C26.7121 50.1417 26.4038 49.325 26.3371 48.425H30.5621C30.6121 48.9083 30.8371 49.3 31.2371 49.6C31.6371 49.9 32.1288 50.05 32.7121 50.05C33.2454 50.05 33.6538 49.95 33.9371 49.75C34.2371 49.5333 34.3871 49.2583 34.3871 48.925C34.3871 48.525 34.1788 48.2333 33.7621 48.05C33.3454 47.85 32.6704 47.6333 31.7371 47.4C30.7371 47.1667 29.9038 46.925 29.2371 46.675C28.5704 46.4083 27.9954 46 27.5121 45.45C27.0288 44.8833 26.7871 44.125 26.7871 43.175C26.7871 42.375 27.0038 41.65 27.4371 41C27.8871 40.3333 28.5371 39.8083 29.3871 39.425C30.2538 39.0417 31.2788 38.85 32.4621 38.85C34.2121 38.85 35.5871 39.2833 36.5871 40.15C37.6038 41.0167 38.1871 42.1667 38.3371 43.6H34.3871C34.3204 43.1167 34.1038 42.7333 33.7371 42.45C33.3871 42.1667 32.9204 42.025 32.3371 42.025C31.8371 42.025 31.4538 42.125 31.1871 42.325C30.9204 42.5083 30.7871 42.7667 30.7871 43.1C30.7871 43.5 30.9954 43.8 31.4121 44C31.8454 44.2 32.5121 44.4 33.4121 44.6C34.4454 44.8667 35.2871 45.1333 35.9371 45.4C36.5871 45.65 37.1538 46.0667 37.6371 46.65C38.1371 47.2167 38.3954 47.9833 38.4121 48.95C38.4121 49.7667 38.1788 50.5 37.7121 51.15C37.2621 51.7833 36.6038 52.2833 35.7371 52.65C34.8871 53.0167 33.8954 53.2 32.7621 53.2ZM40.1775 46.025C40.1775 44.575 40.4692 43.3083 41.0525 42.225C41.6525 41.1417 42.4775 40.3083 43.5275 39.725C44.5942 39.1417 45.8109 38.85 47.1775 38.85C48.9275 38.85 50.3859 39.3083 51.5525 40.225C52.7359 41.1417 53.5109 42.4333 53.8775 44.1H49.3275C48.9442 43.0333 48.2025 42.5 47.1025 42.5C46.3192 42.5 45.6942 42.8083 45.2275 43.425C44.7609 44.025 44.5275 44.8917 44.5275 46.025C44.5275 47.1583 44.7609 48.0333 45.2275 48.65C45.6942 49.25 46.3192 49.55 47.1025 49.55C48.2025 49.55 48.9442 49.0167 49.3275 47.95H53.8775C53.5109 49.5833 52.7359 50.8667 51.5525 51.8C50.3692 52.7333 48.9109 53.2 47.1775 53.2C45.8109 53.2 44.5942 52.9083 43.5275 52.325C42.4775 51.7417 41.6525 50.9083 41.0525 49.825C40.4692 48.7417 40.1775 47.475 40.1775 46.025ZM62.5143 53.2C61.1476 53.2 59.9143 52.9083 58.8143 52.325C57.7309 51.7417 56.8726 50.9083 56.2393 49.825C55.6226 48.7417 55.3143 47.475 55.3143 46.025C55.3143 44.5917 55.6309 43.3333 56.2643 42.25C56.8976 41.15 57.7643 40.3083 58.8643 39.725C59.9643 39.1417 61.1976 38.85 62.5643 38.85C63.9309 38.85 65.1643 39.1417 66.2643 39.725C67.3643 40.3083 68.2309 41.15 68.8643 42.25C69.4976 43.3333 69.8143 44.5917 69.8143 46.025C69.8143 47.4583 69.4893 48.725 68.8393 49.825C68.2059 50.9083 67.3309 51.7417 66.2143 52.325C65.1143 52.9083 63.8809 53.2 62.5143 53.2ZM62.5143 49.5C63.3309 49.5 64.0226 49.2 64.5893 48.6C65.1726 48 65.4643 47.1417 65.4643 46.025C65.4643 44.9083 65.1809 44.05 64.6143 43.45C64.0643 42.85 63.3809 42.55 62.5643 42.55C61.7309 42.55 61.0393 42.85 60.4893 43.45C59.9393 44.0333 59.6643 44.8917 59.6643 46.025C59.6643 47.1417 59.9309 48 60.4643 48.6C61.0143 49.2 61.6976 49.5 62.5143 49.5ZM78.3572 49L81.3822 39.05H85.9322L80.9822 53H75.7072L70.7572 39.05H75.3322L78.3572 49ZM100.882 45.8C100.882 46.2 100.857 46.6167 100.807 47.05H91.1316C91.1983 47.9167 91.4733 48.5833 91.9566 49.05C92.4566 49.5 93.065 49.725 93.7816 49.725C94.8483 49.725 95.59 49.275 96.0066 48.375H100.557C100.323 49.2917 99.8983 50.1167 99.2816 50.85C98.6816 51.5833 97.9233 52.1583 97.0066 52.575C96.09 52.9917 95.065 53.2 93.9316 53.2C92.565 53.2 91.3483 52.9083 90.2816 52.325C89.215 51.7417 88.3816 50.9083 87.7816 49.825C87.1816 48.7417 86.8816 47.475 86.8816 46.025C86.8816 44.575 87.1733 43.3083 87.7566 42.225C88.3566 41.1417 89.19 40.3083 90.2566 39.725C91.3233 39.1417 92.5483 38.85 93.9316 38.85C95.2816 38.85 96.4816 39.1333 97.5316 39.7C98.5816 40.2667 99.3983 41.075 99.9816 42.125C100.582 43.175 100.882 44.4 100.882 45.8ZM96.5066 44.675C96.5066 43.9417 96.2566 43.3583 95.7566 42.925C95.2566 42.4917 94.6316 42.275 93.8816 42.275C93.165 42.275 92.5566 42.4833 92.0566 42.9C91.5733 43.3167 91.2733 43.9083 91.1566 44.675H96.5066ZM107.412 41.375C107.912 40.6083 108.537 40.0083 109.287 39.575C110.037 39.125 110.87 38.9 111.787 38.9V43.425H110.612C109.545 43.425 108.745 43.6583 108.212 44.125C107.679 44.575 107.412 45.375 107.412 46.525V53H103.137V39.05H107.412V41.375ZM130.053 49.9H123.503L122.453 53H117.978L124.328 35.45H129.278L135.628 53H131.103L130.053 49.9ZM128.953 46.6L126.778 40.175L124.628 46.6H128.953ZM136.711 46C136.711 44.5667 136.977 43.3083 137.511 42.225C138.061 41.1417 138.802 40.3083 139.736 39.725C140.669 39.1417 141.711 38.85 142.861 38.85C143.777 38.85 144.611 39.0417 145.361 39.425C146.127 39.8083 146.727 40.325 147.161 40.975V34.5H151.436V53H147.161V51C146.761 51.6667 146.186 52.2 145.436 52.6C144.702 53 143.844 53.2 142.861 53.2C141.711 53.2 140.669 52.9083 139.736 52.325C138.802 51.725 138.061 50.8833 137.511 49.8C136.977 48.7 136.711 47.4333 136.711 46ZM147.161 46.025C147.161 44.9583 146.861 44.1167 146.261 43.5C145.677 42.8833 144.961 42.575 144.111 42.575C143.261 42.575 142.536 42.8833 141.936 43.5C141.352 44.1 141.061 44.9333 141.061 46C141.061 47.0667 141.352 47.9167 141.936 48.55C142.536 49.1667 143.261 49.475 144.111 49.475C144.961 49.475 145.677 49.1667 146.261 48.55C146.861 47.9333 147.161 47.0917 147.161 46.025ZM160.879 53.2C159.512 53.2 158.279 52.9083 157.179 52.325C156.095 51.7417 155.237 50.9083 154.604 49.825C153.987 48.7417 153.679 47.475 153.679 46.025C153.679 44.5917 153.995 43.3333 154.629 42.25C155.262 41.15 156.129 40.3083 157.229 39.725C158.329 39.1417 159.562 38.85 160.929 38.85C162.295 38.85 163.529 39.1417 164.629 39.725C165.729 40.3083 166.595 41.15 167.229 42.25C167.862 43.3333 168.179 44.5917 168.179 46.025C168.179 47.4583 167.854 48.725 167.204 49.825C166.57 50.9083 165.695 51.7417 164.579 52.325C163.479 52.9083 162.245 53.2 160.879 53.2ZM160.879 49.5C161.695 49.5 162.387 49.2 162.954 48.6C163.537 48 163.829 47.1417 163.829 46.025C163.829 44.9083 163.545 44.05 162.979 43.45C162.429 42.85 161.745 42.55 160.929 42.55C160.095 42.55 159.404 42.85 158.854 43.45C158.304 44.0333 158.029 44.8917 158.029 46.025C158.029 47.1417 158.295 48 158.829 48.6C159.379 49.2 160.062 49.5 160.879 49.5ZM174.721 41.375C175.221 40.6083 175.846 40.0083 176.596 39.575C177.346 39.125 178.18 38.9 179.096 38.9V43.425H177.921C176.855 43.425 176.055 43.6583 175.521 44.125C174.988 44.575 174.721 45.375 174.721 46.525V53H170.446V39.05H174.721V41.375ZM180.29 46C180.29 44.5667 180.557 43.3083 181.09 42.225C181.64 41.1417 182.382 40.3083 183.315 39.725C184.248 39.1417 185.29 38.85 186.44 38.85C187.423 38.85 188.282 39.05 189.015 39.45C189.765 39.85 190.34 40.375 190.74 41.025V39.05H195.015V53H190.74V51.025C190.323 51.675 189.74 52.2 188.99 52.6C188.257 53 187.398 53.2 186.415 53.2C185.282 53.2 184.248 52.9083 183.315 52.325C182.382 51.725 181.64 50.8833 181.09 49.8C180.557 48.7 180.29 47.4333 180.29 46ZM190.74 46.025C190.74 44.9583 190.44 44.1167 189.84 43.5C189.257 42.8833 188.54 42.575 187.69 42.575C186.84 42.575 186.115 42.8833 185.515 43.5C184.932 44.1 184.64 44.9333 184.64 46C184.64 47.0667 184.932 47.9167 185.515 48.55C186.115 49.1667 186.84 49.475 187.69 49.475C188.54 49.475 189.257 49.1667 189.84 48.55C190.44 47.9333 190.74 47.0917 190.74 46.025ZM202.383 41.025C202.783 40.375 203.358 39.85 204.108 39.45C204.858 39.05 205.716 38.85 206.683 38.85C207.833 38.85 208.874 39.1417 209.808 39.725C210.741 40.3083 211.474 41.1417 212.008 42.225C212.558 43.3083 212.833 44.5667 212.833 46C212.833 47.4333 212.558 48.7 212.008 49.8C211.474 50.8833 210.741 51.725 209.808 52.325C208.874 52.9083 207.833 53.2 206.683 53.2C205.699 53.2 204.841 53.0083 204.108 52.625C203.374 52.225 202.799 51.7 202.383 51.05V53H198.108V34.5H202.383V41.025ZM208.483 46C208.483 44.9333 208.183 44.1 207.583 43.5C206.999 42.8833 206.274 42.575 205.408 42.575C204.558 42.575 203.833 42.8833 203.233 43.5C202.649 44.1167 202.358 44.9583 202.358 46.025C202.358 47.0917 202.649 47.9333 203.233 48.55C203.833 49.1667 204.558 49.475 205.408 49.475C206.258 49.475 206.983 49.1667 207.583 48.55C208.183 47.9167 208.483 47.0667 208.483 46ZM219.35 34.5V53H215.075V34.5H219.35ZM235.598 45.8C235.598 46.2 235.573 46.6167 235.523 47.05H225.848C225.915 47.9167 226.19 48.5833 226.673 49.05C227.173 49.5 227.782 49.725 228.498 49.725C229.565 49.725 230.307 49.275 230.723 48.375H235.273C235.04 49.2917 234.615 50.1167 233.998 50.85C233.398 51.5833 232.64 52.1583 231.723 52.575C230.807 52.9917 229.782 53.2 228.648 53.2C227.282 53.2 226.065 52.9083 224.998 52.325C223.932 51.7417 223.098 50.9083 222.498 49.825C221.898 48.7417 221.598 47.475 221.598 46.025C221.598 44.575 221.89 43.3083 222.473 42.225C223.073 41.1417 223.907 40.3083 224.973 39.725C226.04 39.1417 227.265 38.85 228.648 38.85C229.998 38.85 231.198 39.1333 232.248 39.7C233.298 40.2667 234.115 41.075 234.698 42.125C235.298 43.175 235.598 44.4 235.598 45.8ZM231.223 44.675C231.223 43.9417 230.973 43.3583 230.473 42.925C229.973 42.4917 229.348 42.275 228.598 42.275C227.882 42.275 227.273 42.4833 226.773 42.9C226.29 43.3167 225.99 43.9083 225.873 44.675H231.223ZM247.427 38.875V42.425H253.152V45.725H247.427V49.575H253.902V53H243.152V35.45H253.902V38.875H247.427ZM262.352 53.2C261.135 53.2 260.052 52.9917 259.102 52.575C258.152 52.1583 257.402 51.5917 256.852 50.875C256.302 50.1417 255.994 49.325 255.927 48.425H260.152C260.202 48.9083 260.427 49.3 260.827 49.6C261.227 49.9 261.719 50.05 262.302 50.05C262.835 50.05 263.244 49.95 263.527 49.75C263.827 49.5333 263.977 49.2583 263.977 48.925C263.977 48.525 263.769 48.2333 263.352 48.05C262.935 47.85 262.26 47.6333 261.327 47.4C260.327 47.1667 259.494 46.925 258.827 46.675C258.16 46.4083 257.585 46 257.102 45.45C256.619 44.8833 256.377 44.125 256.377 43.175C256.377 42.375 256.594 41.65 257.027 41C257.477 40.3333 258.127 39.8083 258.977 39.425C259.844 39.0417 260.869 38.85 262.052 38.85C263.802 38.85 265.177 39.2833 266.177 40.15C267.194 41.0167 267.777 42.1667 267.927 43.6H263.977C263.91 43.1167 263.694 42.7333 263.327 42.45C262.977 42.1667 262.51 42.025 261.927 42.025C261.427 42.025 261.044 42.125 260.777 42.325C260.51 42.5083 260.377 42.7667 260.377 43.1C260.377 43.5 260.585 43.8 261.002 44C261.435 44.2 262.102 44.4 263.002 44.6C264.035 44.8667 264.877 45.1333 265.527 45.4C266.177 45.65 266.744 46.0667 267.227 46.65C267.727 47.2167 267.985 47.9833 268.002 48.95C268.002 49.7667 267.769 50.5 267.302 51.15C266.852 51.7833 266.194 52.2833 265.327 52.65C264.477 53.0167 263.485 53.2 262.352 53.2ZM276.292 53.2C275.076 53.2 273.992 52.9917 273.042 52.575C272.092 52.1583 271.342 51.5917 270.792 50.875C270.242 50.1417 269.934 49.325 269.867 48.425H274.092C274.142 48.9083 274.367 49.3 274.767 49.6C275.167 49.9 275.659 50.05 276.242 50.05C276.776 50.05 277.184 49.95 277.467 49.75C277.767 49.5333 277.917 49.2583 277.917 48.925C277.917 48.525 277.709 48.2333 277.292 48.05C276.876 47.85 276.201 47.6333 275.267 47.4C274.267 47.1667 273.434 46.925 272.767 46.675C272.101 46.4083 271.526 46 271.042 45.45C270.559 44.8833 270.317 44.125 270.317 43.175C270.317 42.375 270.534 41.65 270.967 41C271.417 40.3333 272.067 39.8083 272.917 39.425C273.784 39.0417 274.809 38.85 275.992 38.85C277.742 38.85 279.117 39.2833 280.117 40.15C281.134 41.0167 281.717 42.1667 281.867 43.6H277.917C277.851 43.1167 277.634 42.7333 277.267 42.45C276.917 42.1667 276.451 42.025 275.867 42.025C275.367 42.025 274.984 42.125 274.717 42.325C274.451 42.5083 274.317 42.7667 274.317 43.1C274.317 43.5 274.526 43.8 274.942 44C275.376 44.2 276.042 44.4 276.942 44.6C277.976 44.8667 278.817 45.1333 279.467 45.4C280.117 45.65 280.684 46.0667 281.167 46.65C281.667 47.2167 281.926 47.9833 281.942 48.95C281.942 49.7667 281.709 50.5 281.242 51.15C280.792 51.7833 280.134 52.2833 279.267 52.65C278.417 53.0167 277.426 53.2 276.292 53.2ZM297.708 45.8C297.708 46.2 297.683 46.6167 297.633 47.05H287.958C288.024 47.9167 288.299 48.5833 288.783 49.05C289.283 49.5 289.891 49.725 290.608 49.725C291.674 49.725 292.416 49.275 292.833 48.375H297.383C297.149 49.2917 296.724 50.1167 296.108 50.85C295.508 51.5833 294.749 52.1583 293.833 52.575C292.916 52.9917 291.891 53.2 290.758 53.2C289.391 53.2 288.174 52.9083 287.108 52.325C286.041 51.7417 285.208 50.9083 284.608 49.825C284.008 48.7417 283.708 47.475 283.708 46.025C283.708 44.575 283.999 43.3083 284.583 42.225C285.183 41.1417 286.016 40.3083 287.083 39.725C288.149 39.1417 289.374 38.85 290.758 38.85C292.108 38.85 293.308 39.1333 294.358 39.7C295.408 40.2667 296.224 41.075 296.808 42.125C297.408 43.175 297.708 44.4 297.708 45.8ZM293.333 44.675C293.333 43.9417 293.083 43.3583 292.583 42.925C292.083 42.4917 291.458 42.275 290.708 42.275C289.991 42.275 289.383 42.4833 288.883 42.9C288.399 43.3167 288.099 43.9083 287.983 44.675H293.333ZM308.463 38.9C310.096 38.9 311.396 39.4333 312.363 40.5C313.346 41.55 313.838 43 313.838 44.85V53H309.588V45.425C309.588 44.4917 309.346 43.7667 308.863 43.25C308.38 42.7333 307.73 42.475 306.913 42.475C306.096 42.475 305.446 42.7333 304.963 43.25C304.48 43.7667 304.238 44.4917 304.238 45.425V53H299.963V39.05H304.238V40.9C304.671 40.2833 305.255 39.8 305.988 39.45C306.721 39.0833 307.546 38.9 308.463 38.9ZM324.584 49.375V53H322.409C320.859 53 319.65 52.625 318.784 51.875C317.917 51.1083 317.484 49.8667 317.484 48.15V42.6H315.784V39.05H317.484V35.65H321.759V39.05H324.559V42.6H321.759V48.2C321.759 48.6167 321.859 48.9167 322.059 49.1C322.259 49.2833 322.592 49.375 323.059 49.375H324.584ZM329.115 37.6C328.365 37.6 327.748 37.3833 327.265 36.95C326.798 36.5 326.565 35.95 326.565 35.3C326.565 34.6333 326.798 34.0833 327.265 33.65C327.748 33.2 328.365 32.975 329.115 32.975C329.848 32.975 330.448 33.2 330.915 33.65C331.398 34.0833 331.64 34.6333 331.64 35.3C331.64 35.95 331.398 36.5 330.915 36.95C330.448 37.3833 329.848 37.6 329.115 37.6ZM331.24 39.05V53H326.965V39.05H331.24ZM333.488 46C333.488 44.5667 333.755 43.3083 334.288 42.225C334.838 41.1417 335.58 40.3083 336.513 39.725C337.446 39.1417 338.488 38.85 339.638 38.85C340.621 38.85 341.48 39.05 342.213 39.45C342.963 39.85 343.538 40.375 343.938 41.025V39.05H348.213V53H343.938V51.025C343.521 51.675 342.938 52.2 342.188 52.6C341.455 53 340.596 53.2 339.613 53.2C338.48 53.2 337.446 52.9083 336.513 52.325C335.58 51.725 334.838 50.8833 334.288 49.8C333.755 48.7 333.488 47.4333 333.488 46ZM343.938 46.025C343.938 44.9583 343.638 44.1167 343.038 43.5C342.455 42.8833 341.738 42.575 340.888 42.575C340.038 42.575 339.313 42.8833 338.713 43.5C338.13 44.1 337.838 44.9333 337.838 46C337.838 47.0667 338.13 47.9167 338.713 48.55C339.313 49.1667 340.038 49.475 340.888 49.475C341.738 49.475 342.455 49.1667 343.038 48.55C343.638 47.9333 343.938 47.0917 343.938 46.025ZM355.581 34.5V53H351.306V34.5H355.581ZM364.354 53.2C363.137 53.2 362.054 52.9917 361.104 52.575C360.154 52.1583 359.404 51.5917 358.854 50.875C358.304 50.1417 357.996 49.325 357.929 48.425H362.154C362.204 48.9083 362.429 49.3 362.829 49.6C363.229 49.9 363.721 50.05 364.304 50.05C364.837 50.05 365.246 49.95 365.529 49.75C365.829 49.5333 365.979 49.2583 365.979 48.925C365.979 48.525 365.771 48.2333 365.354 48.05C364.937 47.85 364.262 47.6333 363.329 47.4C362.329 47.1667 361.496 46.925 360.829 46.675C360.162 46.4083 359.587 46 359.104 45.45C358.621 44.8833 358.379 44.125 358.379 43.175C358.379 42.375 358.596 41.65 359.029 41C359.479 40.3333 360.129 39.8083 360.979 39.425C361.846 39.0417 362.871 38.85 364.054 38.85C365.804 38.85 367.179 39.2833 368.179 40.15C369.196 41.0167 369.779 42.1667 369.929 43.6H365.979C365.912 43.1167 365.696 42.7333 365.329 42.45C364.979 42.1667 364.512 42.025 363.929 42.025C363.429 42.025 363.046 42.125 362.779 42.325C362.512 42.5083 362.379 42.7667 362.379 43.1C362.379 43.5 362.587 43.8 363.004 44C363.437 44.2 364.104 44.4 365.004 44.6C366.037 44.8667 366.879 45.1333 367.529 45.4C368.179 45.65 368.746 46.0667 369.229 46.65C369.729 47.2167 369.987 47.9833 370.004 48.95C370.004 49.7667 369.771 50.5 369.304 51.15C368.854 51.7833 368.196 52.2833 367.329 52.65C366.479 53.0167 365.487 53.2 364.354 53.2ZM384.917 42.6H382.617V53H378.342V42.6H376.792V39.05H378.342V38.65C378.342 36.9333 378.834 35.6333 379.817 34.75C380.801 33.85 382.242 33.4 384.142 33.4C384.459 33.4 384.692 33.4083 384.842 33.425V37.05C384.026 37 383.451 37.1167 383.117 37.4C382.784 37.6833 382.617 38.1917 382.617 38.925V39.05H384.917V42.6ZM393.276 53.2C391.909 53.2 390.676 52.9083 389.576 52.325C388.493 51.7417 387.634 50.9083 387.001 49.825C386.384 48.7417 386.076 47.475 386.076 46.025C386.076 44.5917 386.393 43.3333 387.026 42.25C387.659 41.15 388.526 40.3083 389.626 39.725C390.726 39.1417 391.959 38.85 393.326 38.85C394.693 38.85 395.926 39.1417 397.026 39.725C398.126 40.3083 398.993 41.15 399.626 42.25C400.259 43.3333 400.576 44.5917 400.576 46.025C400.576 47.4583 400.251 48.725 399.601 49.825C398.968 50.9083 398.093 51.7417 396.976 52.325C395.876 52.9083 394.643 53.2 393.276 53.2ZM393.276 49.5C394.093 49.5 394.784 49.2 395.351 48.6C395.934 48 396.226 47.1417 396.226 46.025C396.226 44.9083 395.943 44.05 395.376 43.45C394.826 42.85 394.143 42.55 393.326 42.55C392.493 42.55 391.801 42.85 391.251 43.45C390.701 44.0333 390.426 44.8917 390.426 46.025C390.426 47.1417 390.693 48 391.226 48.6C391.776 49.2 392.459 49.5 393.276 49.5ZM407.119 41.375C407.619 40.6083 408.244 40.0083 408.994 39.575C409.744 39.125 410.577 38.9 411.494 38.9V43.425H410.319C409.252 43.425 408.452 43.6583 407.919 44.125C407.386 44.575 407.119 45.375 407.119 46.525V53H402.844V39.05H407.119V41.375ZM16.6 71.45L10.525 83.2V89H6.25V83.2L0.175 71.45H5.025L8.425 78.8L11.8 71.45H16.6ZM24.6725 89.2C23.3058 89.2 22.0725 88.9083 20.9725 88.325C19.8891 87.7417 19.0308 86.9083 18.3975 85.825C17.7808 84.7417 17.4725 83.475 17.4725 82.025C17.4725 80.5917 17.7891 79.3333 18.4225 78.25C19.0558 77.15 19.9225 76.3083 21.0225 75.725C22.1225 75.1417 23.3558 74.85 24.7225 74.85C26.0891 74.85 27.3225 75.1417 28.4225 75.725C29.5225 76.3083 30.3891 77.15 31.0225 78.25C31.6558 79.3333 31.9725 80.5917 31.9725 82.025C31.9725 83.4583 31.6475 84.725 30.9975 85.825C30.3641 86.9083 29.4891 87.7417 28.3725 88.325C27.2725 88.9083 26.0391 89.2 24.6725 89.2ZM24.6725 85.5C25.4891 85.5 26.1808 85.2 26.7475 84.6C27.3308 84 27.6225 83.1417 27.6225 82.025C27.6225 80.9083 27.3391 80.05 26.7725 79.45C26.2225 78.85 25.5391 78.55 24.7225 78.55C23.8891 78.55 23.1975 78.85 22.6475 79.45C22.0975 80.0333 21.8225 80.8917 21.8225 82.025C21.8225 83.1417 22.0891 84 22.6225 84.6C23.1725 85.2 23.8558 85.5 24.6725 85.5ZM48.0154 75.05V89H43.7404V87.1C43.3071 87.7167 42.7154 88.2167 41.9654 88.6C41.2321 88.9667 40.4154 89.15 39.5154 89.15C38.4488 89.15 37.5071 88.9167 36.6904 88.45C35.8738 87.9667 35.2404 87.275 34.7904 86.375C34.3404 85.475 34.1154 84.4167 34.1154 83.2V75.05H38.3654V82.625C38.3654 83.5583 38.6071 84.2833 39.0904 84.8C39.5738 85.3167 40.2238 85.575 41.0404 85.575C41.8738 85.575 42.5321 85.3167 43.0154 84.8C43.4988 84.2833 43.7404 83.5583 43.7404 82.625V75.05H48.0154ZM55.3611 77.375C55.8611 76.6083 56.4861 76.0083 57.2361 75.575C57.9861 75.125 58.8195 74.9 59.7361 74.9V79.425H58.5611C57.4945 79.425 56.6945 79.6583 56.1611 80.125C55.6278 80.575 55.3611 81.375 55.3611 82.525V89H51.0861V75.05H55.3611V77.375ZM71.3523 85.7H76.9523V89H67.0773V71.45H71.3523V85.7ZM81.1414 73.6C80.3914 73.6 79.7747 73.3833 79.2914 72.95C78.8247 72.5 78.5914 71.95 78.5914 71.3C78.5914 70.6333 78.8247 70.0833 79.2914 69.65C79.7747 69.2 80.3914 68.975 81.1414 68.975C81.8747 68.975 82.4747 69.2 82.9414 69.65C83.4247 70.0833 83.6664 70.6333 83.6664 71.3C83.6664 71.95 83.4247 72.5 82.9414 72.95C82.4747 73.3833 81.8747 73.6 81.1414 73.6ZM83.2664 75.05V89H78.9914V75.05H83.2664ZM94.1395 85.375V89H91.9645C90.4145 89 89.2061 88.625 88.3395 87.875C87.4728 87.1083 87.0395 85.8667 87.0395 84.15V78.6H85.3395V75.05H87.0395V71.65H91.3145V75.05H94.1145V78.6H91.3145V84.2C91.3145 84.6167 91.4145 84.9167 91.6145 85.1C91.8145 85.2833 92.1478 85.375 92.6145 85.375H94.1395ZM104.296 85.375V89H102.121C100.571 89 99.3624 88.625 98.4957 87.875C97.629 87.1083 97.1957 85.8667 97.1957 84.15V78.6H95.4957V75.05H97.1957V71.65H101.471V75.05H104.271V78.6H101.471V84.2C101.471 84.6167 101.571 84.9167 101.771 85.1C101.971 85.2833 102.304 85.375 102.771 85.375H104.296ZM110.952 70.5V89H106.677V70.5H110.952ZM127.2 81.8C127.2 82.2 127.175 82.6167 127.125 83.05H117.45C117.517 83.9167 117.792 84.5833 118.275 85.05C118.775 85.5 119.383 85.725 120.1 85.725C121.167 85.725 121.908 85.275 122.325 84.375H126.875C126.642 85.2917 126.217 86.1167 125.6 86.85C125 87.5833 124.242 88.1583 123.325 88.575C122.408 88.9917 121.383 89.2 120.25 89.2C118.883 89.2 117.667 88.9083 116.6 88.325C115.533 87.7417 114.7 86.9083 114.1 85.825C113.5 84.7417 113.2 83.475 113.2 82.025C113.2 80.575 113.492 79.3083 114.075 78.225C114.675 77.1417 115.508 76.3083 116.575 75.725C117.642 75.1417 118.867 74.85 120.25 74.85C121.6 74.85 122.8 75.1333 123.85 75.7C124.9 76.2667 125.717 77.075 126.3 78.125C126.9 79.175 127.2 80.4 127.2 81.8ZM122.825 80.675C122.825 79.9417 122.575 79.3583 122.075 78.925C121.575 78.4917 120.95 78.275 120.2 78.275C119.483 78.275 118.875 78.4833 118.375 78.9C117.892 79.3167 117.592 79.9083 117.475 80.675H122.825ZM143.053 89.175C141.403 89.175 139.886 88.7917 138.503 88.025C137.136 87.2583 136.045 86.1917 135.228 84.825C134.428 83.4417 134.028 81.8917 134.028 80.175C134.028 78.4583 134.428 76.9167 135.228 75.55C136.045 74.1833 137.136 73.1167 138.503 72.35C139.886 71.5833 141.403 71.2 143.053 71.2C144.703 71.2 146.211 71.5833 147.578 72.35C148.961 73.1167 150.045 74.1833 150.828 75.55C151.628 76.9167 152.028 78.4583 152.028 80.175C152.028 81.8917 151.628 83.4417 150.828 84.825C150.028 86.1917 148.945 87.2583 147.578 88.025C146.211 88.7917 144.703 89.175 143.053 89.175ZM143.053 85.275C144.453 85.275 145.57 84.8083 146.403 83.875C147.253 82.9417 147.678 81.7083 147.678 80.175C147.678 78.625 147.253 77.3917 146.403 76.475C145.57 75.5417 144.453 75.075 143.053 75.075C141.636 75.075 140.503 75.5333 139.653 76.45C138.82 77.3667 138.403 78.6083 138.403 80.175C138.403 81.725 138.82 82.9667 139.653 83.9C140.503 84.8167 141.636 85.275 143.053 85.275ZM162.906 74.9C164.54 74.9 165.84 75.4333 166.806 76.5C167.79 77.55 168.281 79 168.281 80.85V89H164.031V81.425C164.031 80.4917 163.79 79.7667 163.306 79.25C162.823 78.7333 162.173 78.475 161.356 78.475C160.54 78.475 159.89 78.7333 159.406 79.25C158.923 79.7667 158.681 80.4917 158.681 81.425V89H154.406V75.05H158.681V76.9C159.115 76.2833 159.698 75.8 160.431 75.45C161.165 75.0833 161.99 74.9 162.906 74.9ZM184.402 81.8C184.402 82.2 184.377 82.6167 184.327 83.05H174.652C174.719 83.9167 174.994 84.5833 175.477 85.05C175.977 85.5 176.585 85.725 177.302 85.725C178.369 85.725 179.11 85.275 179.527 84.375H184.077C183.844 85.2917 183.419 86.1167 182.802 86.85C182.202 87.5833 181.444 88.1583 180.527 88.575C179.61 88.9917 178.585 89.2 177.452 89.2C176.085 89.2 174.869 88.9083 173.802 88.325C172.735 87.7417 171.902 86.9083 171.302 85.825C170.702 84.7417 170.402 83.475 170.402 82.025C170.402 80.575 170.694 79.3083 171.277 78.225C171.877 77.1417 172.71 76.3083 173.777 75.725C174.844 75.1417 176.069 74.85 177.452 74.85C178.802 74.85 180.002 75.1333 181.052 75.7C182.102 76.2667 182.919 77.075 183.502 78.125C184.102 79.175 184.402 80.4 184.402 81.8ZM180.027 80.675C180.027 79.9417 179.777 79.3583 179.277 78.925C178.777 78.4917 178.152 78.275 177.402 78.275C176.685 78.275 176.077 78.4833 175.577 78.9C175.094 79.3167 174.794 79.9083 174.677 80.675H180.027ZM192.332 89.2C191.116 89.2 190.032 88.9917 189.082 88.575C188.132 88.1583 187.382 87.5917 186.832 86.875C186.282 86.1417 185.974 85.325 185.907 84.425H190.132C190.182 84.9083 190.407 85.3 190.807 85.6C191.207 85.9 191.699 86.05 192.282 86.05C192.816 86.05 193.224 85.95 193.507 85.75C193.807 85.5333 193.957 85.2583 193.957 84.925C193.957 84.525 193.749 84.2333 193.332 84.05C192.916 83.85 192.241 83.6333 191.307 83.4C190.307 83.1667 189.474 82.925 188.807 82.675C188.141 82.4083 187.566 82 187.082 81.45C186.599 80.8833 186.357 80.125 186.357 79.175C186.357 78.375 186.574 77.65 187.007 77C187.457 76.3333 188.107 75.8083 188.957 75.425C189.824 75.0417 190.849 74.85 192.032 74.85C193.782 74.85 195.157 75.2833 196.157 76.15C197.174 77.0167 197.757 78.1667 197.907 79.6H193.957C193.891 79.1167 193.674 78.7333 193.307 78.45C192.957 78.1667 192.491 78.025 191.907 78.025C191.407 78.025 191.024 78.125 190.757 78.325C190.491 78.5083 190.357 78.7667 190.357 79.1C190.357 79.5 190.566 79.8 190.982 80C191.416 80.2 192.082 80.4 192.982 80.6C194.016 80.8667 194.857 81.1333 195.507 81.4C196.157 81.65 196.724 82.0667 197.207 82.65C197.707 83.2167 197.966 83.9833 197.982 84.95C197.982 85.7667 197.749 86.5 197.282 87.15C196.832 87.7833 196.174 88.2833 195.307 88.65C194.457 89.0167 193.466 89.2 192.332 89.2Z" fill="white"/>
</svg>
