<svg width="47" height="47" viewBox="0 0 47 47" fill="none" xmlns="http://www.w3.org/2000/svg">
<circle cx="23.5" cy="23.5" r="23.5" fill="#6F0195"/>
<path fill-rule="evenodd" clip-rule="evenodd" d="M21.4402 12.5412C22.0173 12.1872 22.679 12 23.3536 12C24.0282 12 24.6899 12.1872 25.2669 12.5412L26.6256 13.3831C28.532 14.5634 30.7031 14.8263 32.8843 15.0911C33.5893 15.1769 34.295 15.2621 34.9934 15.379C34.9934 15.379 35.0087 16.6181 34.9927 17.1803L34.8533 22.0119C34.7332 26.1558 32.9143 30.0847 29.794 32.9401C28.3219 34.2867 26.7991 35.5035 25.0495 36.5143C24.5339 36.8098 23.9558 36.9755 23.3638 36.9975C22.7718 37.0195 22.1833 36.8971 21.6477 36.6407C19.6273 35.6677 17.8383 34.434 16.2048 32.9401C13.0845 30.0847 11.2655 26.1558 11.1462 22.0119L11.0074 17.1958C10.9907 16.6256 11.0074 15.379 11.0074 15.379C11.5744 15.3114 12.152 15.2553 12.7343 15.1992C15.3043 14.9519 17.9597 14.6965 20.1382 13.3479L21.4402 12.5412ZM21.6597 22.8112V18.0816H24.3278V22.8112H28.9969V25.5139H24.3278V30.2435H21.6597V25.5139H16.9906V22.8112H21.6597Z" fill="white"/>
</svg>
