<svg width="706" height="81" viewBox="0 0 706 81" fill="none" xmlns="http://www.w3.org/2000/svg">
<path d="M240.063 19.9914C240.153 22.6077 238.157 25.3579 234.29 28.095C230.439 30.8214 224.805 33.4811 217.792 35.9242C203.77 40.8092 184.29 44.8094 162.679 46.7613C141.069 48.7133 121.435 48.2458 107.164 45.9163C100.027 44.7512 94.2455 43.1226 90.2307 41.1067C86.2001 39.0829 84.0271 36.7093 83.9369 34.093C83.8468 31.4767 85.8433 28.7266 89.7099 25.9894C93.5613 23.263 99.1953 20.6034 106.208 18.1602C120.23 13.2753 139.71 9.27504 161.321 7.32312C182.931 5.3712 202.565 5.83868 216.836 8.16817C223.973 9.33323 229.755 10.9618 233.769 12.9777C237.8 15.0016 239.973 17.3752 240.063 19.9914Z" stroke="#FD00FE" stroke-width="0.5"/>
<path d="M114.288 24.1C114.288 25.1167 114.054 26.05 113.588 26.9C113.121 27.7333 112.404 28.4083 111.438 28.925C110.471 29.4417 109.271 29.7 107.838 29.7H105.188V36H100.913V18.45H107.838C109.238 18.45 110.421 18.6917 111.388 19.175C112.354 19.6583 113.079 20.325 113.563 21.175C114.046 22.025 114.288 23 114.288 24.1ZM107.513 26.3C108.329 26.3 108.938 26.1083 109.338 25.725C109.738 25.3417 109.938 24.8 109.938 24.1C109.938 23.4 109.738 22.8583 109.338 22.475C108.938 22.0917 108.329 21.9 107.513 21.9H105.188V26.3H107.513ZM120.788 24.375C121.288 23.6083 121.913 23.0083 122.663 22.575C123.413 22.125 124.247 21.9 125.163 21.9V26.425H123.988C122.922 26.425 122.122 26.6583 121.588 27.125C121.055 27.575 120.788 28.375 120.788 29.525V36H116.513V22.05H120.788V24.375ZM140.357 28.8C140.357 29.2 140.332 29.6167 140.282 30.05H130.607C130.673 30.9167 130.948 31.5833 131.432 32.05C131.932 32.5 132.54 32.725 133.257 32.725C134.323 32.725 135.065 32.275 135.482 31.375H140.032C139.798 32.2917 139.373 33.1167 138.757 33.85C138.157 34.5833 137.398 35.1583 136.482 35.575C135.565 35.9917 134.54 36.2 133.407 36.2C132.04 36.2 130.823 35.9083 129.757 35.325C128.69 34.7417 127.857 33.9083 127.257 32.825C126.657 31.7417 126.357 30.475 126.357 29.025C126.357 27.575 126.648 26.3083 127.232 25.225C127.832 24.1417 128.665 23.3083 129.732 22.725C130.798 22.1417 132.023 21.85 133.407 21.85C134.757 21.85 135.957 22.1333 137.007 22.7C138.057 23.2667 138.873 24.075 139.457 25.125C140.057 26.175 140.357 27.4 140.357 28.8ZM135.982 27.675C135.982 26.9417 135.732 26.3583 135.232 25.925C134.732 25.4917 134.107 25.275 133.357 25.275C132.64 25.275 132.032 25.4833 131.532 25.9C131.048 26.3167 130.748 26.9083 130.632 27.675H135.982ZM147.912 21.85C148.895 21.85 149.754 22.05 150.487 22.45C151.237 22.85 151.812 23.375 152.212 24.025V22.05H156.487V35.975C156.487 37.2583 156.229 38.4167 155.712 39.45C155.212 40.5 154.437 41.3333 153.387 41.95C152.354 42.5667 151.062 42.875 149.512 42.875C147.445 42.875 145.77 42.3833 144.487 41.4C143.204 40.4333 142.47 39.1167 142.287 37.45H146.512C146.645 37.9833 146.962 38.4 147.462 38.7C147.962 39.0167 148.579 39.175 149.312 39.175C150.195 39.175 150.895 38.9167 151.412 38.4C151.945 37.9 152.212 37.0917 152.212 35.975V34C151.795 34.65 151.22 35.1833 150.487 35.6C149.754 36 148.895 36.2 147.912 36.2C146.762 36.2 145.72 35.9083 144.787 35.325C143.854 34.725 143.112 33.8833 142.562 32.8C142.029 31.7 141.762 30.4333 141.762 29C141.762 27.5667 142.029 26.3083 142.562 25.225C143.112 24.1417 143.854 23.3083 144.787 22.725C145.72 22.1417 146.762 21.85 147.912 21.85ZM152.212 29.025C152.212 27.9583 151.912 27.1167 151.312 26.5C150.729 25.8833 150.012 25.575 149.162 25.575C148.312 25.575 147.587 25.8833 146.987 26.5C146.404 27.1 146.112 27.9333 146.112 29C146.112 30.0667 146.404 30.9167 146.987 31.55C147.587 32.1667 148.312 32.475 149.162 32.475C150.012 32.475 150.729 32.1667 151.312 31.55C151.912 30.9333 152.212 30.0917 152.212 29.025ZM170.505 32.9H163.955L162.905 36H158.43L164.78 18.45H169.73L176.08 36H171.555L170.505 32.9ZM169.405 29.6L167.23 23.175L165.08 29.6H169.405ZM185.012 25.6H182.712V36H178.437V25.6H176.887V22.05H178.437V21.65C178.437 19.9333 178.929 18.6333 179.912 17.75C180.896 16.85 182.337 16.4 184.237 16.4C184.554 16.4 184.787 16.4083 184.937 16.425V20.05C184.121 20 183.546 20.1167 183.212 20.4C182.879 20.6833 182.712 21.1917 182.712 21.925V22.05H185.012V25.6ZM191.296 24.375C191.796 23.6083 192.421 23.0083 193.171 22.575C193.921 22.125 194.755 21.9 195.671 21.9V26.425H194.496C193.43 26.425 192.63 26.6583 192.096 27.125C191.563 27.575 191.296 28.375 191.296 29.525V36H187.021V22.05H191.296V24.375ZM199.865 20.6C199.115 20.6 198.498 20.3833 198.015 19.95C197.548 19.5 197.315 18.95 197.315 18.3C197.315 17.6333 197.548 17.0833 198.015 16.65C198.498 16.2 199.115 15.975 199.865 15.975C200.598 15.975 201.198 16.2 201.665 16.65C202.148 17.0833 202.39 17.6333 202.39 18.3C202.39 18.95 202.148 19.5 201.665 19.95C201.198 20.3833 200.598 20.6 199.865 20.6ZM201.99 22.05V36H197.715V22.05H201.99ZM204.238 29.025C204.238 27.575 204.529 26.3083 205.113 25.225C205.713 24.1417 206.538 23.3083 207.588 22.725C208.654 22.1417 209.871 21.85 211.238 21.85C212.988 21.85 214.446 22.3083 215.613 23.225C216.796 24.1417 217.571 25.4333 217.938 27.1H213.388C213.004 26.0333 212.263 25.5 211.163 25.5C210.379 25.5 209.754 25.8083 209.288 26.425C208.821 27.025 208.588 27.8917 208.588 29.025C208.588 30.1583 208.821 31.0333 209.288 31.65C209.754 32.25 210.379 32.55 211.163 32.55C212.263 32.55 213.004 32.0167 213.388 30.95H217.938C217.571 32.5833 216.796 33.8667 215.613 34.8C214.429 35.7333 212.971 36.2 211.238 36.2C209.871 36.2 208.654 35.9083 207.588 35.325C206.538 34.7417 205.713 33.9083 205.113 32.825C204.529 31.7417 204.238 30.475 204.238 29.025ZM219.374 29C219.374 27.5667 219.641 26.3083 220.174 25.225C220.724 24.1417 221.466 23.3083 222.399 22.725C223.333 22.1417 224.374 21.85 225.524 21.85C226.508 21.85 227.366 22.05 228.099 22.45C228.849 22.85 229.424 23.375 229.824 24.025V22.05H234.099V36H229.824V34.025C229.408 34.675 228.824 35.2 228.074 35.6C227.341 36 226.483 36.2 225.499 36.2C224.366 36.2 223.333 35.9083 222.399 35.325C221.466 34.725 220.724 33.8833 220.174 32.8C219.641 31.7 219.374 30.4333 219.374 29ZM229.824 29.025C229.824 27.9583 229.524 27.1167 228.924 26.5C228.341 25.8833 227.624 25.575 226.774 25.575C225.924 25.575 225.199 25.8833 224.599 26.5C224.016 27.1 223.724 27.9333 223.724 29C223.724 30.0667 224.016 30.9167 224.599 31.55C225.199 32.1667 225.924 32.475 226.774 32.475C227.624 32.475 228.341 32.1667 228.924 31.55C229.524 30.9333 229.824 30.0917 229.824 29.025ZM244.64 20.6C243.89 20.6 243.273 20.3833 242.79 19.95C242.323 19.5 242.09 18.95 242.09 18.3C242.09 17.6333 242.323 17.0833 242.79 16.65C243.273 16.2 243.89 15.975 244.64 15.975C245.373 15.975 245.973 16.2 246.44 16.65C246.923 17.0833 247.165 17.6333 247.165 18.3C247.165 18.95 246.923 19.5 246.44 19.95C245.973 20.3833 245.373 20.6 244.64 20.6ZM246.765 22.05V36H242.49V22.05H246.765ZM255.538 36.2C254.321 36.2 253.238 35.9917 252.288 35.575C251.338 35.1583 250.588 34.5917 250.038 33.875C249.488 33.1417 249.18 32.325 249.113 31.425H253.338C253.388 31.9083 253.613 32.3 254.013 32.6C254.413 32.9 254.905 33.05 255.488 33.05C256.021 33.05 256.43 32.95 256.713 32.75C257.013 32.5333 257.163 32.2583 257.163 31.925C257.163 31.525 256.955 31.2333 256.538 31.05C256.121 30.85 255.446 30.6333 254.513 30.4C253.513 30.1667 252.68 29.925 252.013 29.675C251.346 29.4083 250.771 29 250.288 28.45C249.805 27.8833 249.563 27.125 249.563 26.175C249.563 25.375 249.78 24.65 250.213 24C250.663 23.3333 251.313 22.8083 252.163 22.425C253.03 22.0417 254.055 21.85 255.238 21.85C256.988 21.85 258.363 22.2833 259.363 23.15C260.38 24.0167 260.963 25.1667 261.113 26.6H257.163C257.096 26.1167 256.88 25.7333 256.513 25.45C256.163 25.1667 255.696 25.025 255.113 25.025C254.613 25.025 254.23 25.125 253.963 25.325C253.696 25.5083 253.563 25.7667 253.563 26.1C253.563 26.5 253.771 26.8 254.188 27C254.621 27.2 255.288 27.4 256.188 27.6C257.221 27.8667 258.063 28.1333 258.713 28.4C259.363 28.65 259.93 29.0667 260.413 29.65C260.913 30.2167 261.171 30.9833 261.188 31.95C261.188 32.7667 260.955 33.5 260.488 34.15C260.038 34.7833 259.38 35.2833 258.513 35.65C257.663 36.0167 256.671 36.2 255.538 36.2ZM268.251 29C268.251 27.5667 268.518 26.3083 269.051 25.225C269.601 24.1417 270.343 23.3083 271.276 22.725C272.21 22.1417 273.251 21.85 274.401 21.85C275.385 21.85 276.243 22.05 276.976 22.45C277.726 22.85 278.301 23.375 278.701 24.025V22.05H282.976V36H278.701V34.025C278.285 34.675 277.701 35.2 276.951 35.6C276.218 36 275.36 36.2 274.376 36.2C273.243 36.2 272.21 35.9083 271.276 35.325C270.343 34.725 269.601 33.8833 269.051 32.8C268.518 31.7 268.251 30.4333 268.251 29ZM278.701 29.025C278.701 27.9583 278.401 27.1167 277.801 26.5C277.218 25.8833 276.501 25.575 275.651 25.575C274.801 25.575 274.076 25.8833 273.476 26.5C272.893 27.1 272.601 27.9333 272.601 29C272.601 30.0667 272.893 30.9167 273.476 31.55C274.076 32.1667 274.801 32.475 275.651 32.475C276.501 32.475 277.218 32.1667 277.801 31.55C278.401 30.9333 278.701 30.0917 278.701 29.025ZM297.042 36.2C295.825 36.2 294.742 35.9917 293.792 35.575C292.842 35.1583 292.092 34.5917 291.542 33.875C290.992 33.1417 290.684 32.325 290.617 31.425H294.842C294.892 31.9083 295.117 32.3 295.517 32.6C295.917 32.9 296.409 33.05 296.992 33.05C297.525 33.05 297.934 32.95 298.217 32.75C298.517 32.5333 298.667 32.2583 298.667 31.925C298.667 31.525 298.459 31.2333 298.042 31.05C297.625 30.85 296.95 30.6333 296.017 30.4C295.017 30.1667 294.184 29.925 293.517 29.675C292.85 29.4083 292.275 29 291.792 28.45C291.309 27.8833 291.067 27.125 291.067 26.175C291.067 25.375 291.284 24.65 291.717 24C292.167 23.3333 292.817 22.8083 293.667 22.425C294.534 22.0417 295.559 21.85 296.742 21.85C298.492 21.85 299.867 22.2833 300.867 23.15C301.884 24.0167 302.467 25.1667 302.617 26.6H298.667C298.6 26.1167 298.384 25.7333 298.017 25.45C297.667 25.1667 297.2 25.025 296.617 25.025C296.117 25.025 295.734 25.125 295.467 25.325C295.2 25.5083 295.067 25.7667 295.067 26.1C295.067 26.5 295.275 26.8 295.692 27C296.125 27.2 296.792 27.4 297.692 27.6C298.725 27.8667 299.567 28.1333 300.217 28.4C300.867 28.65 301.434 29.0667 301.917 29.65C302.417 30.2167 302.675 30.9833 302.692 31.95C302.692 32.7667 302.459 33.5 301.992 34.15C301.542 34.7833 300.884 35.2833 300.017 35.65C299.167 36.0167 298.175 36.2 297.042 36.2ZM311.657 36.2C310.291 36.2 309.057 35.9083 307.957 35.325C306.874 34.7417 306.016 33.9083 305.382 32.825C304.766 31.7417 304.457 30.475 304.457 29.025C304.457 27.5917 304.774 26.3333 305.407 25.25C306.041 24.15 306.907 23.3083 308.007 22.725C309.107 22.1417 310.341 21.85 311.707 21.85C313.074 21.85 314.307 22.1417 315.407 22.725C316.507 23.3083 317.374 24.15 318.007 25.25C318.641 26.3333 318.957 27.5917 318.957 29.025C318.957 30.4583 318.632 31.725 317.982 32.825C317.349 33.9083 316.474 34.7417 315.357 35.325C314.257 35.9083 313.024 36.2 311.657 36.2ZM311.657 32.5C312.474 32.5 313.166 32.2 313.732 31.6C314.316 31 314.607 30.1417 314.607 29.025C314.607 27.9083 314.324 27.05 313.757 26.45C313.207 25.85 312.524 25.55 311.707 25.55C310.874 25.55 310.182 25.85 309.632 26.45C309.082 27.0333 308.807 27.8917 308.807 29.025C308.807 30.1417 309.074 31 309.607 31.6C310.157 32.2 310.841 32.5 311.657 32.5ZM320.375 29.025C320.375 27.575 320.667 26.3083 321.25 25.225C321.85 24.1417 322.675 23.3083 323.725 22.725C324.792 22.1417 326.009 21.85 327.375 21.85C329.125 21.85 330.584 22.3083 331.75 23.225C332.934 24.1417 333.709 25.4333 334.075 27.1H329.525C329.142 26.0333 328.4 25.5 327.3 25.5C326.517 25.5 325.892 25.8083 325.425 26.425C324.959 27.025 324.725 27.8917 324.725 29.025C324.725 30.1583 324.959 31.0333 325.425 31.65C325.892 32.25 326.517 32.55 327.3 32.55C328.4 32.55 329.142 32.0167 329.525 30.95H334.075C333.709 32.5833 332.934 33.8667 331.75 34.8C330.567 35.7333 329.109 36.2 327.375 36.2C326.009 36.2 324.792 35.9083 323.725 35.325C322.675 34.7417 321.85 33.9083 321.25 32.825C320.667 31.7417 320.375 30.475 320.375 29.025ZM338.512 20.6C337.762 20.6 337.145 20.3833 336.662 19.95C336.195 19.5 335.962 18.95 335.962 18.3C335.962 17.6333 336.195 17.0833 336.662 16.65C337.145 16.2 337.762 15.975 338.512 15.975C339.245 15.975 339.845 16.2 340.312 16.65C340.795 17.0833 341.037 17.6333 341.037 18.3C341.037 18.95 340.795 19.5 340.312 19.95C339.845 20.3833 339.245 20.6 338.512 20.6ZM340.637 22.05V36H336.362V22.05H340.637ZM342.885 29C342.885 27.5667 343.152 26.3083 343.685 25.225C344.235 24.1417 344.977 23.3083 345.91 22.725C346.843 22.1417 347.885 21.85 349.035 21.85C350.018 21.85 350.877 22.05 351.61 22.45C352.36 22.85 352.935 23.375 353.335 24.025V22.05H357.61V36H353.335V34.025C352.918 34.675 352.335 35.2 351.585 35.6C350.852 36 349.993 36.2 349.01 36.2C347.877 36.2 346.843 35.9083 345.91 35.325C344.977 34.725 344.235 33.8833 343.685 32.8C343.152 31.7 342.885 30.4333 342.885 29ZM353.335 29.025C353.335 27.9583 353.035 27.1167 352.435 26.5C351.852 25.8833 351.135 25.575 350.285 25.575C349.435 25.575 348.71 25.8833 348.11 26.5C347.527 27.1 347.235 27.9333 347.235 29C347.235 30.0667 347.527 30.9167 348.11 31.55C348.71 32.1667 349.435 32.475 350.285 32.475C351.135 32.475 351.852 32.1667 352.435 31.55C353.035 30.9333 353.335 30.0917 353.335 29.025ZM364.978 17.5V36H360.703V17.5H364.978ZM386.524 28.8C386.524 29.2 386.499 29.6167 386.449 30.05H376.774C376.84 30.9167 377.115 31.5833 377.599 32.05C378.099 32.5 378.707 32.725 379.424 32.725C380.49 32.725 381.232 32.275 381.649 31.375H386.199C385.965 32.2917 385.54 33.1167 384.924 33.85C384.324 34.5833 383.565 35.1583 382.649 35.575C381.732 35.9917 380.707 36.2 379.574 36.2C378.207 36.2 376.99 35.9083 375.924 35.325C374.857 34.7417 374.024 33.9083 373.424 32.825C372.824 31.7417 372.524 30.475 372.524 29.025C372.524 27.575 372.815 26.3083 373.399 25.225C373.999 24.1417 374.832 23.3083 375.899 22.725C376.965 22.1417 378.19 21.85 379.574 21.85C380.924 21.85 382.124 22.1333 383.174 22.7C384.224 23.2667 385.04 24.075 385.624 25.125C386.224 26.175 386.524 27.4 386.524 28.8ZM382.149 27.675C382.149 26.9417 381.899 26.3583 381.399 25.925C380.899 25.4917 380.274 25.275 379.524 25.275C378.807 25.275 378.199 25.4833 377.699 25.9C377.215 26.3167 376.915 26.9083 376.799 27.675H382.149ZM397.279 21.9C398.912 21.9 400.212 22.4333 401.179 23.5C402.162 24.55 402.654 26 402.654 27.85V36H398.404V28.425C398.404 27.4917 398.162 26.7667 397.679 26.25C397.196 25.7333 396.546 25.475 395.729 25.475C394.912 25.475 394.262 25.7333 393.779 26.25C393.296 26.7667 393.054 27.4917 393.054 28.425V36H388.779V22.05H393.054V23.9C393.487 23.2833 394.071 22.8 394.804 22.45C395.537 22.0833 396.362 21.9 397.279 21.9ZM413.4 32.375V36H411.225C409.675 36 408.466 35.625 407.6 34.875C406.733 34.1083 406.3 32.8667 406.3 31.15V25.6H404.6V22.05H406.3V18.65H410.575V22.05H413.375V25.6H410.575V31.2C410.575 31.6167 410.675 31.9167 410.875 32.1C411.075 32.2833 411.408 32.375 411.875 32.375H413.4ZM428.931 28.8C428.931 29.2 428.906 29.6167 428.856 30.05H419.181C419.248 30.9167 419.523 31.5833 420.006 32.05C420.506 32.5 421.114 32.725 421.831 32.725C422.898 32.725 423.639 32.275 424.056 31.375H428.606C428.373 32.2917 427.948 33.1167 427.331 33.85C426.731 34.5833 425.973 35.1583 425.056 35.575C424.139 35.9917 423.114 36.2 421.981 36.2C420.614 36.2 419.398 35.9083 418.331 35.325C417.264 34.7417 416.431 33.9083 415.831 32.825C415.231 31.7417 414.931 30.475 414.931 29.025C414.931 27.575 415.223 26.3083 415.806 25.225C416.406 24.1417 417.239 23.3083 418.306 22.725C419.373 22.1417 420.598 21.85 421.981 21.85C423.331 21.85 424.531 22.1333 425.581 22.7C426.631 23.2667 427.448 24.075 428.031 25.125C428.631 26.175 428.931 27.4 428.931 28.8ZM424.556 27.675C424.556 26.9417 424.306 26.3583 423.806 25.925C423.306 25.4917 422.681 25.275 421.931 25.275C421.214 25.275 420.606 25.4833 420.106 25.9C419.623 26.3167 419.323 26.9083 419.206 27.675H424.556ZM435.461 24.375C435.961 23.6083 436.586 23.0083 437.336 22.575C438.086 22.125 438.92 21.9 439.836 21.9V26.425H438.661C437.595 26.425 436.795 26.6583 436.261 27.125C435.728 27.575 435.461 28.375 435.461 29.525V36H431.186V22.05H435.461V24.375ZM446.155 24.025C446.571 23.375 447.146 22.85 447.88 22.45C448.613 22.05 449.471 21.85 450.455 21.85C451.605 21.85 452.646 22.1417 453.58 22.725C454.513 23.3083 455.246 24.1417 455.78 25.225C456.33 26.3083 456.605 27.5667 456.605 29C456.605 30.4333 456.33 31.7 455.78 32.8C455.246 33.8833 454.513 34.725 453.58 35.325C452.646 35.9083 451.605 36.2 450.455 36.2C449.488 36.2 448.63 36 447.88 35.6C447.146 35.2 446.571 34.6833 446.155 34.05V42.65H441.88V22.05H446.155V24.025ZM452.255 29C452.255 27.9333 451.955 27.1 451.355 26.5C450.771 25.8833 450.046 25.575 449.18 25.575C448.33 25.575 447.605 25.8833 447.005 26.5C446.421 27.1167 446.13 27.9583 446.13 29.025C446.13 30.0917 446.421 30.9333 447.005 31.55C447.605 32.1667 448.33 32.475 449.18 32.475C450.03 32.475 450.755 32.1667 451.355 31.55C451.955 30.9167 452.255 30.0667 452.255 29ZM463.122 24.375C463.622 23.6083 464.247 23.0083 464.997 22.575C465.747 22.125 466.581 21.9 467.497 21.9V26.425H466.322C465.256 26.425 464.456 26.6583 463.922 27.125C463.389 27.575 463.122 28.375 463.122 29.525V36H458.847V22.05H463.122V24.375ZM471.691 20.6C470.941 20.6 470.324 20.3833 469.841 19.95C469.374 19.5 469.141 18.95 469.141 18.3C469.141 17.6333 469.374 17.0833 469.841 16.65C470.324 16.2 470.941 15.975 471.691 15.975C472.424 15.975 473.024 16.2 473.491 16.65C473.974 17.0833 474.216 17.6333 474.216 18.3C474.216 18.95 473.974 19.5 473.491 19.95C473.024 20.3833 472.424 20.6 471.691 20.6ZM473.816 22.05V36H469.541V22.05H473.816ZM482.589 36.2C481.372 36.2 480.289 35.9917 479.339 35.575C478.389 35.1583 477.639 34.5917 477.089 33.875C476.539 33.1417 476.23 32.325 476.164 31.425H480.389C480.439 31.9083 480.664 32.3 481.064 32.6C481.464 32.9 481.955 33.05 482.539 33.05C483.072 33.05 483.48 32.95 483.764 32.75C484.064 32.5333 484.214 32.2583 484.214 31.925C484.214 31.525 484.005 31.2333 483.589 31.05C483.172 30.85 482.497 30.6333 481.564 30.4C480.564 30.1667 479.73 29.925 479.064 29.675C478.397 29.4083 477.822 29 477.339 28.45C476.855 27.8833 476.614 27.125 476.614 26.175C476.614 25.375 476.83 24.65 477.264 24C477.714 23.3333 478.364 22.8083 479.214 22.425C480.08 22.0417 481.105 21.85 482.289 21.85C484.039 21.85 485.414 22.2833 486.414 23.15C487.43 24.0167 488.014 25.1667 488.164 26.6H484.214C484.147 26.1167 483.93 25.7333 483.564 25.45C483.214 25.1667 482.747 25.025 482.164 25.025C481.664 25.025 481.28 25.125 481.014 25.325C480.747 25.5083 480.614 25.7667 480.614 26.1C480.614 26.5 480.822 26.8 481.239 27C481.672 27.2 482.339 27.4 483.239 27.6C484.272 27.8667 485.114 28.1333 485.764 28.4C486.414 28.65 486.98 29.0667 487.464 29.65C487.964 30.2167 488.222 30.9833 488.239 31.95C488.239 32.7667 488.005 33.5 487.539 34.15C487.089 34.7833 486.43 35.2833 485.564 35.65C484.714 36.0167 483.722 36.2 482.589 36.2ZM504.004 28.8C504.004 29.2 503.979 29.6167 503.929 30.05H494.254C494.321 30.9167 494.596 31.5833 495.079 32.05C495.579 32.5 496.188 32.725 496.904 32.725C497.971 32.725 498.713 32.275 499.129 31.375H503.679C503.446 32.2917 503.021 33.1167 502.404 33.85C501.804 34.5833 501.046 35.1583 500.129 35.575C499.213 35.9917 498.188 36.2 497.054 36.2C495.688 36.2 494.471 35.9083 493.404 35.325C492.338 34.7417 491.504 33.9083 490.904 32.825C490.304 31.7417 490.004 30.475 490.004 29.025C490.004 27.575 490.296 26.3083 490.879 25.225C491.479 24.1417 492.313 23.3083 493.379 22.725C494.446 22.1417 495.671 21.85 497.054 21.85C498.404 21.85 499.604 22.1333 500.654 22.7C501.704 23.2667 502.521 24.075 503.104 25.125C503.704 26.175 504.004 27.4 504.004 28.8ZM499.629 27.675C499.629 26.9417 499.379 26.3583 498.879 25.925C498.379 25.4917 497.754 25.275 497.004 25.275C496.288 25.275 495.679 25.4833 495.179 25.9C494.696 26.3167 494.396 26.9083 494.279 27.675H499.629ZM531.582 22.05L527.807 36H523.082L520.882 26.95L518.607 36H513.907L510.107 22.05H514.382L516.357 32.025L518.707 22.05H523.232L525.607 31.975L527.557 22.05H531.582ZM541.788 21.9C543.388 21.9 544.671 22.4333 545.638 23.5C546.604 24.55 547.088 26 547.088 27.85V36H542.838V28.425C542.838 27.4917 542.596 26.7667 542.113 26.25C541.629 25.7333 540.979 25.475 540.163 25.475C539.346 25.475 538.696 25.7333 538.213 26.25C537.729 26.7667 537.488 27.4917 537.488 28.425V36H533.213V17.5H537.488V23.925C537.921 23.3083 538.513 22.8167 539.263 22.45C540.013 22.0833 540.854 21.9 541.788 21.9ZM552.208 20.6C551.458 20.6 550.842 20.3833 550.358 19.95C549.892 19.5 549.658 18.95 549.658 18.3C549.658 17.6333 549.892 17.0833 550.358 16.65C550.842 16.2 551.458 15.975 552.208 15.975C552.942 15.975 553.542 16.2 554.008 16.65C554.492 17.0833 554.733 17.6333 554.733 18.3C554.733 18.95 554.492 19.5 554.008 19.95C553.542 20.3833 552.942 20.6 552.208 20.6ZM554.333 22.05V36H550.058V22.05H554.333ZM556.581 29.025C556.581 27.575 556.873 26.3083 557.456 25.225C558.056 24.1417 558.881 23.3083 559.931 22.725C560.998 22.1417 562.215 21.85 563.581 21.85C565.331 21.85 566.79 22.3083 567.956 23.225C569.14 24.1417 569.915 25.4333 570.281 27.1H565.731C565.348 26.0333 564.606 25.5 563.506 25.5C562.723 25.5 562.098 25.8083 561.631 26.425C561.165 27.025 560.931 27.8917 560.931 29.025C560.931 30.1583 561.165 31.0333 561.631 31.65C562.098 32.25 562.723 32.55 563.506 32.55C564.606 32.55 565.348 32.0167 565.731 30.95H570.281C569.915 32.5833 569.14 33.8667 567.956 34.8C566.773 35.7333 565.315 36.2 563.581 36.2C562.215 36.2 560.998 35.9083 559.931 35.325C558.881 34.7417 558.056 33.9083 557.456 32.825C556.873 31.7417 556.581 30.475 556.581 29.025ZM581.143 21.9C582.743 21.9 584.026 22.4333 584.993 23.5C585.96 24.55 586.443 26 586.443 27.85V36H582.193V28.425C582.193 27.4917 581.951 26.7667 581.468 26.25C580.985 25.7333 580.335 25.475 579.518 25.475C578.701 25.475 578.051 25.7333 577.568 26.25C577.085 26.7667 576.843 27.4917 576.843 28.425V36H572.568V17.5H576.843V23.925C577.276 23.3083 577.868 22.8167 578.618 22.45C579.368 22.0833 580.21 21.9 581.143 21.9ZM614.737 22.05L610.962 36H606.237L604.037 26.95L601.762 36H597.062L593.262 22.05H597.537L599.512 32.025L601.862 22.05H606.387L608.762 31.975L610.712 22.05H614.737ZM622.717 36.2C621.35 36.2 620.117 35.9083 619.017 35.325C617.934 34.7417 617.075 33.9083 616.442 32.825C615.825 31.7417 615.517 30.475 615.517 29.025C615.517 27.5917 615.834 26.3333 616.467 25.25C617.1 24.15 617.967 23.3083 619.067 22.725C620.167 22.1417 621.4 21.85 622.767 21.85C624.134 21.85 625.367 22.1417 626.467 22.725C627.567 23.3083 628.434 24.15 629.067 25.25C629.7 26.3333 630.017 27.5917 630.017 29.025C630.017 30.4583 629.692 31.725 629.042 32.825C628.409 33.9083 627.534 34.7417 626.417 35.325C625.317 35.9083 624.084 36.2 622.717 36.2ZM622.717 32.5C623.534 32.5 624.225 32.2 624.792 31.6C625.375 31 625.667 30.1417 625.667 29.025C625.667 27.9083 625.384 27.05 624.817 26.45C624.267 25.85 623.584 25.55 622.767 25.55C621.934 25.55 621.242 25.85 620.692 26.45C620.142 27.0333 619.867 27.8917 619.867 29.025C619.867 30.1417 620.134 31 620.667 31.6C621.217 32.2 621.9 32.5 622.717 32.5ZM636.56 24.375C637.06 23.6083 637.685 23.0083 638.435 22.575C639.185 22.125 640.018 21.9 640.935 21.9V26.425H639.76C638.693 26.425 637.893 26.6583 637.36 27.125C636.827 27.575 636.56 28.375 636.56 29.525V36H632.285V22.05H636.56V24.375ZM651.503 36L647.253 30.15V36H642.978V17.5H647.253V27.725L651.478 22.05H656.753L650.953 29.05L656.803 36H651.503ZM664.107 36.2C662.891 36.2 661.807 35.9917 660.857 35.575C659.907 35.1583 659.157 34.5917 658.607 33.875C658.057 33.1417 657.749 32.325 657.682 31.425H661.907C661.957 31.9083 662.182 32.3 662.582 32.6C662.982 32.9 663.474 33.05 664.057 33.05C664.591 33.05 664.999 32.95 665.282 32.75C665.582 32.5333 665.732 32.2583 665.732 31.925C665.732 31.525 665.524 31.2333 665.107 31.05C664.691 30.85 664.016 30.6333 663.082 30.4C662.082 30.1667 661.249 29.925 660.582 29.675C659.916 29.4083 659.341 29 658.857 28.45C658.374 27.8833 658.132 27.125 658.132 26.175C658.132 25.375 658.349 24.65 658.782 24C659.232 23.3333 659.882 22.8083 660.732 22.425C661.599 22.0417 662.624 21.85 663.807 21.85C665.557 21.85 666.932 22.2833 667.932 23.15C668.949 24.0167 669.532 25.1667 669.682 26.6H665.732C665.666 26.1167 665.449 25.7333 665.082 25.45C664.732 25.1667 664.266 25.025 663.682 25.025C663.182 25.025 662.799 25.125 662.532 25.325C662.266 25.5083 662.132 25.7667 662.132 26.1C662.132 26.5 662.341 26.8 662.757 27C663.191 27.2 663.857 27.4 664.757 27.6C665.791 27.8667 666.632 28.1333 667.282 28.4C667.932 28.65 668.499 29.0667 668.982 29.65C669.482 30.2167 669.741 30.9833 669.757 31.95C669.757 32.7667 669.524 33.5 669.057 34.15C668.607 34.7833 667.949 35.2833 667.082 35.65C666.232 36.0167 665.241 36.2 664.107 36.2ZM679.821 20.6C679.071 20.6 678.454 20.3833 677.971 19.95C677.504 19.5 677.271 18.95 677.271 18.3C677.271 17.6333 677.504 17.0833 677.971 16.65C678.454 16.2 679.071 15.975 679.821 15.975C680.554 15.975 681.154 16.2 681.621 16.65C682.104 17.0833 682.346 17.6333 682.346 18.3C682.346 18.95 682.104 19.5 681.621 19.95C681.154 20.3833 680.554 20.6 679.821 20.6ZM681.946 22.05V36H677.671V22.05H681.946ZM693.544 21.9C695.177 21.9 696.477 22.4333 697.444 23.5C698.427 24.55 698.919 26 698.919 27.85V36H694.669V28.425C694.669 27.4917 694.427 26.7667 693.944 26.25C693.46 25.7333 692.81 25.475 691.994 25.475C691.177 25.475 690.527 25.7333 690.044 26.25C689.56 26.7667 689.319 27.4917 689.319 28.425V36H685.044V22.05H689.319V23.9C689.752 23.2833 690.335 22.8 691.069 22.45C691.802 22.0833 692.627 21.9 693.544 21.9ZM134.778 60.375C135.278 59.6083 135.903 59.0083 136.653 58.575C137.403 58.125 138.236 57.9 139.153 57.9V62.425H137.978C136.911 62.425 136.111 62.6583 135.578 63.125C135.044 63.575 134.778 64.375 134.778 65.525V72H130.503V58.05H134.778V60.375ZM154.971 58.05V72H150.696V70.1C150.263 70.7167 149.671 71.2167 148.921 71.6C148.188 71.9667 147.371 72.15 146.471 72.15C145.404 72.15 144.463 71.9167 143.646 71.45C142.829 70.9667 142.196 70.275 141.746 69.375C141.296 68.475 141.071 67.4167 141.071 66.2V58.05H145.321V65.625C145.321 66.5583 145.563 67.2833 146.046 67.8C146.529 68.3167 147.179 68.575 147.996 68.575C148.829 68.575 149.488 68.3167 149.971 67.8C150.454 67.2833 150.696 66.5583 150.696 65.625V58.05H154.971ZM162.317 60.375C162.817 59.6083 163.442 59.0083 164.192 58.575C164.942 58.125 165.775 57.9 166.692 57.9V62.425H165.517C164.45 62.425 163.65 62.6583 163.117 63.125C162.583 63.575 162.317 64.375 162.317 65.525V72H158.042V58.05H162.317V60.375ZM167.885 65C167.885 63.5667 168.152 62.3083 168.685 61.225C169.235 60.1417 169.977 59.3083 170.91 58.725C171.843 58.1417 172.885 57.85 174.035 57.85C175.018 57.85 175.877 58.05 176.61 58.45C177.36 58.85 177.935 59.375 178.335 60.025V58.05H182.61V72H178.335V70.025C177.918 70.675 177.335 71.2 176.585 71.6C175.852 72 174.993 72.2 174.01 72.2C172.877 72.2 171.843 71.9083 170.91 71.325C169.977 70.725 169.235 69.8833 168.685 68.8C168.152 67.7 167.885 66.4333 167.885 65ZM178.335 65.025C178.335 63.9583 178.035 63.1167 177.435 62.5C176.852 61.8833 176.135 61.575 175.285 61.575C174.435 61.575 173.71 61.8833 173.11 62.5C172.527 63.1 172.235 63.9333 172.235 65C172.235 66.0667 172.527 66.9167 173.11 67.55C173.71 68.1667 174.435 68.475 175.285 68.475C176.135 68.475 176.852 68.1667 177.435 67.55C178.035 66.9333 178.335 66.0917 178.335 65.025ZM189.978 53.5V72H185.703V53.5H189.978ZM197.524 65C197.524 63.5667 197.79 62.3083 198.324 61.225C198.874 60.1417 199.615 59.3083 200.549 58.725C201.482 58.1417 202.524 57.85 203.674 57.85C204.657 57.85 205.515 58.05 206.249 58.45C206.999 58.85 207.574 59.375 207.974 60.025V58.05H212.249V72H207.974V70.025C207.557 70.675 206.974 71.2 206.224 71.6C205.49 72 204.632 72.2 203.649 72.2C202.515 72.2 201.482 71.9083 200.549 71.325C199.615 70.725 198.874 69.8833 198.324 68.8C197.79 67.7 197.524 66.4333 197.524 65ZM207.974 65.025C207.974 63.9583 207.674 63.1167 207.074 62.5C206.49 61.8833 205.774 61.575 204.924 61.575C204.074 61.575 203.349 61.8833 202.749 62.5C202.165 63.1 201.874 63.9333 201.874 65C201.874 66.0667 202.165 66.9167 202.749 67.55C203.349 68.1667 204.074 68.475 204.924 68.475C205.774 68.475 206.49 68.1667 207.074 67.55C207.674 66.9333 207.974 66.0917 207.974 65.025ZM223.842 57.9C225.475 57.9 226.775 58.4333 227.742 59.5C228.725 60.55 229.217 62 229.217 63.85V72H224.967V64.425C224.967 63.4917 224.725 62.7667 224.242 62.25C223.758 61.7333 223.108 61.475 222.292 61.475C221.475 61.475 220.825 61.7333 220.342 62.25C219.858 62.7667 219.617 63.4917 219.617 64.425V72H215.342V58.05H219.617V59.9C220.05 59.2833 220.633 58.8 221.367 58.45C222.1 58.0833 222.925 57.9 223.842 57.9ZM231.337 65C231.337 63.5667 231.604 62.3083 232.137 61.225C232.687 60.1417 233.429 59.3083 234.362 58.725C235.296 58.1417 236.337 57.85 237.487 57.85C238.404 57.85 239.237 58.0417 239.987 58.425C240.754 58.8083 241.354 59.325 241.787 59.975V53.5H246.062V72H241.787V70C241.387 70.6667 240.812 71.2 240.062 71.6C239.329 72 238.471 72.2 237.487 72.2C236.337 72.2 235.296 71.9083 234.362 71.325C233.429 70.725 232.687 69.8833 232.137 68.8C231.604 67.7 231.337 66.4333 231.337 65ZM241.787 65.025C241.787 63.9583 241.487 63.1167 240.887 62.5C240.304 61.8833 239.587 61.575 238.737 61.575C237.887 61.575 237.162 61.8833 236.562 62.5C235.979 63.1 235.687 63.9333 235.687 65C235.687 66.0667 235.979 66.9167 236.562 67.55C237.162 68.1667 237.887 68.475 238.737 68.475C239.587 68.475 240.304 68.1667 240.887 67.55C241.487 66.9333 241.787 66.0917 241.787 65.025ZM268.228 58.05V72H263.953V70.1C263.519 70.7167 262.928 71.2167 262.178 71.6C261.444 71.9667 260.628 72.15 259.728 72.15C258.661 72.15 257.719 71.9167 256.903 71.45C256.086 70.9667 255.453 70.275 255.003 69.375C254.553 68.475 254.328 67.4167 254.328 66.2V58.05H258.578V65.625C258.578 66.5583 258.819 67.2833 259.303 67.8C259.786 68.3167 260.436 68.575 261.253 68.575C262.086 68.575 262.744 68.3167 263.228 67.8C263.711 67.2833 263.953 66.5583 263.953 65.625V58.05H268.228ZM275.574 60.375C276.074 59.6083 276.699 59.0083 277.449 58.575C278.199 58.125 279.032 57.9 279.949 57.9V62.425H278.774C277.707 62.425 276.907 62.6583 276.374 63.125C275.84 63.575 275.574 64.375 275.574 65.525V72H271.299V58.05H275.574V60.375ZM286.267 60.025C286.667 59.375 287.242 58.85 287.992 58.45C288.742 58.05 289.6 57.85 290.567 57.85C291.717 57.85 292.759 58.1417 293.692 58.725C294.625 59.3083 295.359 60.1417 295.892 61.225C296.442 62.3083 296.717 63.5667 296.717 65C296.717 66.4333 296.442 67.7 295.892 68.8C295.359 69.8833 294.625 70.725 293.692 71.325C292.759 71.9083 291.717 72.2 290.567 72.2C289.584 72.2 288.725 72.0083 287.992 71.625C287.259 71.225 286.684 70.7 286.267 70.05V72H281.992V53.5H286.267V60.025ZM292.367 65C292.367 63.9333 292.067 63.1 291.467 62.5C290.884 61.8833 290.159 61.575 289.292 61.575C288.442 61.575 287.717 61.8833 287.117 62.5C286.534 63.1167 286.242 63.9583 286.242 65.025C286.242 66.0917 286.534 66.9333 287.117 67.55C287.717 68.1667 288.442 68.475 289.292 68.475C290.142 68.475 290.867 68.1667 291.467 67.55C292.067 66.9167 292.367 66.0667 292.367 65ZM298.11 65C298.11 63.5667 298.376 62.3083 298.91 61.225C299.46 60.1417 300.201 59.3083 301.135 58.725C302.068 58.1417 303.11 57.85 304.26 57.85C305.243 57.85 306.101 58.05 306.835 58.45C307.585 58.85 308.16 59.375 308.56 60.025V58.05H312.835V72H308.56V70.025C308.143 70.675 307.56 71.2 306.81 71.6C306.076 72 305.218 72.2 304.235 72.2C303.101 72.2 302.068 71.9083 301.135 71.325C300.201 70.725 299.46 69.8833 298.91 68.8C298.376 67.7 298.11 66.4333 298.11 65ZM308.56 65.025C308.56 63.9583 308.26 63.1167 307.66 62.5C307.076 61.8833 306.36 61.575 305.51 61.575C304.66 61.575 303.935 61.8833 303.335 62.5C302.751 63.1 302.46 63.9333 302.46 65C302.46 66.0667 302.751 66.9167 303.335 67.55C303.935 68.1667 304.66 68.475 305.51 68.475C306.36 68.475 307.076 68.1667 307.66 67.55C308.26 66.9333 308.56 66.0917 308.56 65.025ZM324.427 57.9C326.061 57.9 327.361 58.4333 328.327 59.5C329.311 60.55 329.802 62 329.802 63.85V72H325.552V64.425C325.552 63.4917 325.311 62.7667 324.827 62.25C324.344 61.7333 323.694 61.475 322.877 61.475C322.061 61.475 321.411 61.7333 320.927 62.25C320.444 62.7667 320.202 63.4917 320.202 64.425V72H315.927V58.05H320.202V59.9C320.636 59.2833 321.219 58.8 321.952 58.45C322.686 58.0833 323.511 57.9 324.427 57.9ZM342.346 60.025C342.763 59.375 343.338 58.85 344.071 58.45C344.804 58.05 345.663 57.85 346.646 57.85C347.796 57.85 348.838 58.1417 349.771 58.725C350.704 59.3083 351.438 60.1417 351.971 61.225C352.521 62.3083 352.796 63.5667 352.796 65C352.796 66.4333 352.521 67.7 351.971 68.8C351.438 69.8833 350.704 70.725 349.771 71.325C348.838 71.9083 347.796 72.2 346.646 72.2C345.679 72.2 344.821 72 344.071 71.6C343.338 71.2 342.763 70.6833 342.346 70.05V78.65H338.071V58.05H342.346V60.025ZM348.446 65C348.446 63.9333 348.146 63.1 347.546 62.5C346.963 61.8833 346.238 61.575 345.371 61.575C344.521 61.575 343.796 61.8833 343.196 62.5C342.613 63.1167 342.321 63.9583 342.321 65.025C342.321 66.0917 342.613 66.9333 343.196 67.55C343.796 68.1667 344.521 68.475 345.371 68.475C346.221 68.475 346.946 68.1667 347.546 67.55C348.146 66.9167 348.446 66.0667 348.446 65ZM361.389 72.2C360.022 72.2 358.789 71.9083 357.689 71.325C356.605 70.7417 355.747 69.9083 355.114 68.825C354.497 67.7417 354.189 66.475 354.189 65.025C354.189 63.5917 354.505 62.3333 355.139 61.25C355.772 60.15 356.639 59.3083 357.739 58.725C358.839 58.1417 360.072 57.85 361.439 57.85C362.805 57.85 364.039 58.1417 365.139 58.725C366.239 59.3083 367.105 60.15 367.739 61.25C368.372 62.3333 368.689 63.5917 368.689 65.025C368.689 66.4583 368.364 67.725 367.714 68.825C367.08 69.9083 366.205 70.7417 365.089 71.325C363.989 71.9083 362.755 72.2 361.389 72.2ZM361.389 68.5C362.205 68.5 362.897 68.2 363.464 67.6C364.047 67 364.339 66.1417 364.339 65.025C364.339 63.9083 364.055 63.05 363.489 62.45C362.939 61.85 362.255 61.55 361.439 61.55C360.605 61.55 359.914 61.85 359.364 62.45C358.814 63.0333 358.539 63.8917 358.539 65.025C358.539 66.1417 358.805 67 359.339 67.6C359.889 68.2 360.572 68.5 361.389 68.5ZM377.307 72.2C375.94 72.2 374.707 71.9083 373.607 71.325C372.523 70.7417 371.665 69.9083 371.032 68.825C370.415 67.7417 370.107 66.475 370.107 65.025C370.107 63.5917 370.423 62.3333 371.057 61.25C371.69 60.15 372.557 59.3083 373.657 58.725C374.757 58.1417 375.99 57.85 377.357 57.85C378.723 57.85 379.957 58.1417 381.057 58.725C382.157 59.3083 383.023 60.15 383.657 61.25C384.29 62.3333 384.607 63.5917 384.607 65.025C384.607 66.4583 384.282 67.725 383.632 68.825C382.998 69.9083 382.123 70.7417 381.007 71.325C379.907 71.9083 378.673 72.2 377.307 72.2ZM377.307 68.5C378.123 68.5 378.815 68.2 379.382 67.6C379.965 67 380.257 66.1417 380.257 65.025C380.257 63.9083 379.973 63.05 379.407 62.45C378.857 61.85 378.173 61.55 377.357 61.55C376.523 61.55 375.832 61.85 375.282 62.45C374.732 63.0333 374.457 63.8917 374.457 65.025C374.457 66.1417 374.723 67 375.257 67.6C375.807 68.2 376.49 68.5 377.307 68.5ZM391.15 60.375C391.65 59.6083 392.275 59.0083 393.025 58.575C393.775 58.125 394.608 57.9 395.525 57.9V62.425H394.35C393.283 62.425 392.483 62.6583 391.95 63.125C391.416 63.575 391.15 64.375 391.15 65.525V72H386.875V58.05H391.15V60.375ZM408.541 72.2C407.324 72.2 406.241 71.9917 405.291 71.575C404.341 71.1583 403.591 70.5917 403.041 69.875C402.491 69.1417 402.183 68.325 402.116 67.425H406.341C406.391 67.9083 406.616 68.3 407.016 68.6C407.416 68.9 407.908 69.05 408.491 69.05C409.024 69.05 409.433 68.95 409.716 68.75C410.016 68.5333 410.166 68.2583 410.166 67.925C410.166 67.525 409.958 67.2333 409.541 67.05C409.124 66.85 408.449 66.6333 407.516 66.4C406.516 66.1667 405.683 65.925 405.016 65.675C404.349 65.4083 403.774 65 403.291 64.45C402.808 63.8833 402.566 63.125 402.566 62.175C402.566 61.375 402.783 60.65 403.216 60C403.666 59.3333 404.316 58.8083 405.166 58.425C406.033 58.0417 407.058 57.85 408.241 57.85C409.991 57.85 411.366 58.2833 412.366 59.15C413.383 60.0167 413.966 61.1667 414.116 62.6H410.166C410.099 62.1167 409.883 61.7333 409.516 61.45C409.166 61.1667 408.699 61.025 408.116 61.025C407.616 61.025 407.233 61.125 406.966 61.325C406.699 61.5083 406.566 61.7667 406.566 62.1C406.566 62.5 406.774 62.8 407.191 63C407.624 63.2 408.291 63.4 409.191 63.6C410.224 63.8667 411.066 64.1333 411.716 64.4C412.366 64.65 412.933 65.0667 413.416 65.65C413.916 66.2167 414.174 66.9833 414.191 67.95C414.191 68.7667 413.958 69.5 413.491 70.15C413.041 70.7833 412.383 71.2833 411.516 71.65C410.666 72.0167 409.674 72.2 408.541 72.2ZM429.956 64.8C429.956 65.2 429.931 65.6167 429.881 66.05H420.206C420.273 66.9167 420.548 67.5833 421.031 68.05C421.531 68.5 422.14 68.725 422.856 68.725C423.923 68.725 424.665 68.275 425.081 67.375H429.631C429.398 68.2917 428.973 69.1167 428.356 69.85C427.756 70.5833 426.998 71.1583 426.081 71.575C425.165 71.9917 424.14 72.2 423.006 72.2C421.64 72.2 420.423 71.9083 419.356 71.325C418.29 70.7417 417.456 69.9083 416.856 68.825C416.256 67.7417 415.956 66.475 415.956 65.025C415.956 63.575 416.248 62.3083 416.831 61.225C417.431 60.1417 418.265 59.3083 419.331 58.725C420.398 58.1417 421.623 57.85 423.006 57.85C424.356 57.85 425.556 58.1333 426.606 58.7C427.656 59.2667 428.473 60.075 429.056 61.125C429.656 62.175 429.956 63.4 429.956 64.8ZM425.581 63.675C425.581 62.9417 425.331 62.3583 424.831 61.925C424.331 61.4917 423.706 61.275 422.956 61.275C422.24 61.275 421.631 61.4833 421.131 61.9C420.648 62.3167 420.348 62.9083 420.231 63.675H425.581ZM439.987 68.375V72H437.812C436.262 72 435.053 71.625 434.187 70.875C433.32 70.1083 432.887 68.8667 432.887 67.15V61.6H431.187V58.05H432.887V54.65H437.162V58.05H439.962V61.6H437.162V67.2C437.162 67.6167 437.262 67.9167 437.462 68.1C437.662 68.2833 437.995 68.375 438.462 68.375H439.987ZM450.143 68.375V72H447.968C446.418 72 445.21 71.625 444.343 70.875C443.476 70.1083 443.043 68.8667 443.043 67.15V61.6H441.343V58.05H443.043V54.65H447.318V58.05H450.118V61.6H447.318V67.2C447.318 67.6167 447.418 67.9167 447.618 68.1C447.818 68.2833 448.151 68.375 448.618 68.375H450.143ZM456.799 53.5V72H452.524V53.5H456.799ZM473.047 64.8C473.047 65.2 473.022 65.6167 472.972 66.05H463.297C463.364 66.9167 463.639 67.5833 464.122 68.05C464.622 68.5 465.231 68.725 465.947 68.725C467.014 68.725 467.756 68.275 468.172 67.375H472.722C472.489 68.2917 472.064 69.1167 471.447 69.85C470.847 70.5833 470.089 71.1583 469.172 71.575C468.256 71.9917 467.231 72.2 466.097 72.2C464.731 72.2 463.514 71.9083 462.447 71.325C461.381 70.7417 460.547 69.9083 459.947 68.825C459.347 67.7417 459.047 66.475 459.047 65.025C459.047 63.575 459.339 62.3083 459.922 61.225C460.522 60.1417 461.356 59.3083 462.422 58.725C463.489 58.1417 464.714 57.85 466.097 57.85C467.447 57.85 468.647 58.1333 469.697 58.7C470.747 59.2667 471.564 60.075 472.147 61.125C472.747 62.175 473.047 63.4 473.047 64.8ZM468.672 63.675C468.672 62.9417 468.422 62.3583 467.922 61.925C467.422 61.4917 466.797 61.275 466.047 61.275C465.331 61.275 464.722 61.4833 464.222 61.9C463.739 62.3167 463.439 62.9083 463.322 63.675H468.672ZM493.102 57.9C494.836 57.9 496.211 58.425 497.227 59.475C498.261 60.525 498.777 61.9833 498.777 63.85V72H494.527V64.425C494.527 63.525 494.286 62.8333 493.802 62.35C493.336 61.85 492.686 61.6 491.852 61.6C491.019 61.6 490.361 61.85 489.877 62.35C489.411 62.8333 489.177 63.525 489.177 64.425V72H484.927V64.425C484.927 63.525 484.686 62.8333 484.202 62.35C483.736 61.85 483.086 61.6 482.252 61.6C481.419 61.6 480.761 61.85 480.277 62.35C479.811 62.8333 479.577 63.525 479.577 64.425V72H475.302V58.05H479.577V59.8C480.011 59.2167 480.577 58.7583 481.277 58.425C481.977 58.075 482.769 57.9 483.652 57.9C484.702 57.9 485.636 58.125 486.452 58.575C487.286 59.025 487.936 59.6667 488.402 60.5C488.886 59.7333 489.544 59.1083 490.377 58.625C491.211 58.1417 492.119 57.9 493.102 57.9ZM514.917 64.8C514.917 65.2 514.892 65.6167 514.842 66.05H505.167C505.234 66.9167 505.509 67.5833 505.992 68.05C506.492 68.5 507.101 68.725 507.817 68.725C508.884 68.725 509.626 68.275 510.042 67.375H514.592C514.359 68.2917 513.934 69.1167 513.317 69.85C512.717 70.5833 511.959 71.1583 511.042 71.575C510.126 71.9917 509.101 72.2 507.967 72.2C506.601 72.2 505.384 71.9083 504.317 71.325C503.251 70.7417 502.417 69.9083 501.817 68.825C501.217 67.7417 500.917 66.475 500.917 65.025C500.917 63.575 501.209 62.3083 501.792 61.225C502.392 60.1417 503.226 59.3083 504.292 58.725C505.359 58.1417 506.584 57.85 507.967 57.85C509.317 57.85 510.517 58.1333 511.567 58.7C512.617 59.2667 513.434 60.075 514.017 61.125C514.617 62.175 514.917 63.4 514.917 64.8ZM510.542 63.675C510.542 62.9417 510.292 62.3583 509.792 61.925C509.292 61.4917 508.667 61.275 507.917 61.275C507.201 61.275 506.592 61.4833 506.092 61.9C505.609 62.3167 505.309 62.9083 505.192 63.675H510.542ZM525.673 57.9C527.306 57.9 528.606 58.4333 529.573 59.5C530.556 60.55 531.048 62 531.048 63.85V72H526.798V64.425C526.798 63.4917 526.556 62.7667 526.073 62.25C525.589 61.7333 524.939 61.475 524.123 61.475C523.306 61.475 522.656 61.7333 522.173 62.25C521.689 62.7667 521.448 63.4917 521.448 64.425V72H517.173V58.05H521.448V59.9C521.881 59.2833 522.464 58.8 523.198 58.45C523.931 58.0833 524.756 57.9 525.673 57.9ZM541.793 68.375V72H539.618C538.068 72 536.86 71.625 535.993 70.875C535.127 70.1083 534.693 68.8667 534.693 67.15V61.6H532.993V58.05H534.693V54.65H538.968V58.05H541.768V61.6H538.968V67.2C538.968 67.6167 539.068 67.9167 539.268 68.1C539.468 68.2833 539.802 68.375 540.268 68.375H541.793ZM549.85 72.2C548.633 72.2 547.55 71.9917 546.6 71.575C545.65 71.1583 544.9 70.5917 544.35 69.875C543.8 69.1417 543.491 68.325 543.425 67.425H547.65C547.7 67.9083 547.925 68.3 548.325 68.6C548.725 68.9 549.216 69.05 549.8 69.05C550.333 69.05 550.741 68.95 551.025 68.75C551.325 68.5333 551.475 68.2583 551.475 67.925C551.475 67.525 551.266 67.2333 550.85 67.05C550.433 66.85 549.758 66.6333 548.825 66.4C547.825 66.1667 546.991 65.925 546.325 65.675C545.658 65.4083 545.083 65 544.6 64.45C544.116 63.8833 543.875 63.125 543.875 62.175C543.875 61.375 544.091 60.65 544.525 60C544.975 59.3333 545.625 58.8083 546.475 58.425C547.341 58.0417 548.366 57.85 549.55 57.85C551.3 57.85 552.675 58.2833 553.675 59.15C554.691 60.0167 555.275 61.1667 555.425 62.6H551.475C551.408 62.1167 551.191 61.7333 550.825 61.45C550.475 61.1667 550.008 61.025 549.425 61.025C548.925 61.025 548.541 61.125 548.275 61.325C548.008 61.5083 547.875 61.7667 547.875 62.1C547.875 62.5 548.083 62.8 548.5 63C548.933 63.2 549.6 63.4 550.5 63.6C551.533 63.8667 552.375 64.1333 553.025 64.4C553.675 64.65 554.241 65.0667 554.725 65.65C555.225 66.2167 555.483 66.9833 555.5 67.95C555.5 68.7667 555.266 69.5 554.8 70.15C554.35 70.7833 553.691 71.2833 552.825 71.65C551.975 72.0167 550.983 72.2 549.85 72.2ZM565.563 56.6C564.813 56.6 564.196 56.3833 563.713 55.95C563.246 55.5 563.013 54.95 563.013 54.3C563.013 53.6333 563.246 53.0833 563.713 52.65C564.196 52.2 564.813 51.975 565.563 51.975C566.296 51.975 566.896 52.2 567.363 52.65C567.846 53.0833 568.088 53.6333 568.088 54.3C568.088 54.95 567.846 55.5 567.363 55.95C566.896 56.3833 566.296 56.6 565.563 56.6ZM567.688 58.05V72H563.413V58.05H567.688ZM579.286 57.9C580.919 57.9 582.219 58.4333 583.186 59.5C584.169 60.55 584.661 62 584.661 63.85V72H580.411V64.425C580.411 63.4917 580.169 62.7667 579.686 62.25C579.203 61.7333 578.553 61.475 577.736 61.475C576.919 61.475 576.269 61.7333 575.786 62.25C575.303 62.7667 575.061 63.4917 575.061 64.425V72H570.786V58.05H575.061V59.9C575.494 59.2833 576.078 58.8 576.811 58.45C577.544 58.0833 578.369 57.9 579.286 57.9ZM603.854 68.9H597.304L596.254 72H591.779L598.129 54.45H603.079L609.429 72H604.904L603.854 68.9ZM602.754 65.6L600.579 59.175L598.429 65.6H602.754ZM618.362 61.6H616.062V72H611.787V61.6H610.237V58.05H611.787V57.65C611.787 55.9333 612.279 54.6333 613.262 53.75C614.245 52.85 615.687 52.4 617.587 52.4C617.904 52.4 618.137 52.4083 618.287 52.425V56.05C617.47 56 616.895 56.1167 616.562 56.4C616.229 56.6833 616.062 57.1917 616.062 57.925V58.05H618.362V61.6ZM624.646 60.375C625.146 59.6083 625.771 59.0083 626.521 58.575C627.271 58.125 628.104 57.9 629.021 57.9V62.425H627.846C626.779 62.425 625.979 62.6583 625.446 63.125C624.912 63.575 624.646 64.375 624.646 65.525V72H620.371V58.05H624.646V60.375ZM633.214 56.6C632.464 56.6 631.847 56.3833 631.364 55.95C630.897 55.5 630.664 54.95 630.664 54.3C630.664 53.6333 630.897 53.0833 631.364 52.65C631.847 52.2 632.464 51.975 633.214 51.975C633.947 51.975 634.547 52.2 635.014 52.65C635.497 53.0833 635.739 53.6333 635.739 54.3C635.739 54.95 635.497 55.5 635.014 55.95C634.547 56.3833 633.947 56.6 633.214 56.6ZM635.339 58.05V72H631.064V58.05H635.339ZM637.587 65.025C637.587 63.575 637.879 62.3083 638.462 61.225C639.062 60.1417 639.887 59.3083 640.937 58.725C642.004 58.1417 643.221 57.85 644.587 57.85C646.337 57.85 647.796 58.3083 648.962 59.225C650.146 60.1417 650.921 61.4333 651.287 63.1H646.737C646.354 62.0333 645.612 61.5 644.512 61.5C643.729 61.5 643.104 61.8083 642.637 62.425C642.171 63.025 641.937 63.8917 641.937 65.025C641.937 66.1583 642.171 67.0333 642.637 67.65C643.104 68.25 643.729 68.55 644.512 68.55C645.612 68.55 646.354 68.0167 646.737 66.95H651.287C650.921 68.5833 650.146 69.8667 648.962 70.8C647.779 71.7333 646.321 72.2 644.587 72.2C643.221 72.2 642.004 71.9083 640.937 71.325C639.887 70.7417 639.062 69.9083 638.462 68.825C637.879 67.7417 637.587 66.475 637.587 65.025ZM652.724 65C652.724 63.5667 652.991 62.3083 653.524 61.225C654.074 60.1417 654.816 59.3083 655.749 58.725C656.682 58.1417 657.724 57.85 658.874 57.85C659.857 57.85 660.716 58.05 661.449 58.45C662.199 58.85 662.774 59.375 663.174 60.025V58.05H667.449V72H663.174V70.025C662.757 70.675 662.174 71.2 661.424 71.6C660.691 72 659.832 72.2 658.849 72.2C657.716 72.2 656.682 71.9083 655.749 71.325C654.816 70.725 654.074 69.8833 653.524 68.8C652.991 67.7 652.724 66.4333 652.724 65ZM663.174 65.025C663.174 63.9583 662.874 63.1167 662.274 62.5C661.691 61.8833 660.974 61.575 660.124 61.575C659.274 61.575 658.549 61.8833 657.949 62.5C657.366 63.1 657.074 63.9333 657.074 65C657.074 66.0667 657.366 66.9167 657.949 67.55C658.549 68.1667 659.274 68.475 660.124 68.475C660.974 68.475 661.691 68.1667 662.274 67.55C662.874 66.9333 663.174 66.0917 663.174 65.025ZM672.542 72.2C671.792 72.2 671.175 71.9833 670.692 71.55C670.225 71.1 669.992 70.55 669.992 69.9C669.992 69.2333 670.225 68.675 670.692 68.225C671.175 67.775 671.792 67.55 672.542 67.55C673.275 67.55 673.875 67.775 674.342 68.225C674.825 68.675 675.067 69.2333 675.067 69.9C675.067 70.55 674.825 71.1 674.342 71.55C673.875 71.9833 673.275 72.2 672.542 72.2Z" fill="black"/>
<circle cx="8" cy="17" r="8" fill="url(#paint0_linear_2304_156)"/>
<defs>
<linearGradient id="paint0_linear_2304_156" x1="0.277228" y1="16.0495" x2="16" y2="16.1683" gradientUnits="userSpaceOnUse">
<stop stop-color="#6F0195"/>
<stop offset="1" stop-color="#FD00FE"/>
</linearGradient>
</defs>
</svg>
