<svg width="252" height="29" viewBox="0 0 252 29" fill="none" xmlns="http://www.w3.org/2000/svg">
<path d="M14.7 12.575L11.61 23H9.675L7.485 15.11L5.16 23L3.24 23.015L0.285 12.575H2.1L4.26 21.065L6.6 12.575H8.52L10.695 21.02L12.87 12.575H14.7ZM23.6854 18.665C23.6854 18.975 23.6654 19.255 23.6254 19.505H17.3104C17.3604 20.165 17.6054 20.695 18.0454 21.095C18.4854 21.495 19.0254 21.695 19.6654 21.695C20.5854 21.695 21.2354 21.31 21.6154 20.54H23.4604C23.2104 21.3 22.7554 21.925 22.0954 22.415C21.4454 22.895 20.6354 23.135 19.6654 23.135C18.8754 23.135 18.1654 22.96 17.5354 22.61C16.9154 22.25 16.4254 21.75 16.0654 21.11C15.7154 20.46 15.5404 19.71 15.5404 18.86C15.5404 18.01 15.7104 17.265 16.0504 16.625C16.4004 15.975 16.8854 15.475 17.5054 15.125C18.1354 14.775 18.8554 14.6 19.6654 14.6C20.4454 14.6 21.1404 14.77 21.7504 15.11C22.3604 15.45 22.8354 15.93 23.1754 16.55C23.5154 17.16 23.6854 17.865 23.6854 18.665ZM21.9004 18.125C21.8904 17.495 21.6654 16.99 21.2254 16.61C20.7854 16.23 20.2404 16.04 19.5904 16.04C19.0004 16.04 18.4954 16.23 18.0754 16.61C17.6554 16.98 17.4054 17.485 17.3254 18.125H21.9004ZM27.0782 11.9V23H25.3682V11.9H27.0782ZM28.7532 18.86C28.7532 18.01 28.9232 17.265 29.2632 16.625C29.6132 15.975 30.0932 15.475 30.7032 15.125C31.3132 14.775 32.0132 14.6 32.8032 14.6C33.8032 14.6 34.6282 14.84 35.2782 15.32C35.9382 15.79 36.3832 16.465 36.6132 17.345H34.7682C34.6182 16.935 34.3782 16.615 34.0482 16.385C33.7182 16.155 33.3032 16.04 32.8032 16.04C32.1032 16.04 31.5432 16.29 31.1232 16.79C30.7132 17.28 30.5082 17.97 30.5082 18.86C30.5082 19.75 30.7132 20.445 31.1232 20.945C31.5432 21.445 32.1032 21.695 32.8032 21.695C33.7932 21.695 34.4482 21.26 34.7682 20.39H36.6132C36.3732 21.23 35.9232 21.9 35.2632 22.4C34.6032 22.89 33.7832 23.135 32.8032 23.135C32.0132 23.135 31.3132 22.96 30.7032 22.61C30.0932 22.25 29.6132 21.75 29.2632 21.11C28.9232 20.46 28.7532 19.71 28.7532 18.86ZM41.9024 23.135C41.1224 23.135 40.4174 22.96 39.7874 22.61C39.1574 22.25 38.6624 21.75 38.3024 21.11C37.9424 20.46 37.7624 19.71 37.7624 18.86C37.7624 18.02 37.9474 17.275 38.3174 16.625C38.6874 15.975 39.1924 15.475 39.8324 15.125C40.4724 14.775 41.1874 14.6 41.9774 14.6C42.7674 14.6 43.4824 14.775 44.1224 15.125C44.7624 15.475 45.2674 15.975 45.6374 16.625C46.0074 17.275 46.1924 18.02 46.1924 18.86C46.1924 19.7 46.0024 20.445 45.6224 21.095C45.2424 21.745 44.7224 22.25 44.0624 22.61C43.4124 22.96 42.6924 23.135 41.9024 23.135ZM41.9024 21.65C42.3424 21.65 42.7524 21.545 43.1324 21.335C43.5224 21.125 43.8374 20.81 44.0774 20.39C44.3174 19.97 44.4374 19.46 44.4374 18.86C44.4374 18.26 44.3224 17.755 44.0924 17.345C43.8624 16.925 43.5574 16.61 43.1774 16.4C42.7974 16.19 42.3874 16.085 41.9474 16.085C41.5074 16.085 41.0974 16.19 40.7174 16.4C40.3474 16.61 40.0524 16.925 39.8324 17.345C39.6124 17.755 39.5024 18.26 39.5024 18.86C39.5024 19.75 39.7274 20.44 40.1774 20.93C40.6374 21.41 41.2124 21.65 41.9024 21.65ZM57.8878 14.6C58.5378 14.6 59.1178 14.735 59.6278 15.005C60.1478 15.275 60.5528 15.675 60.8428 16.205C61.1428 16.735 61.2928 17.375 61.2928 18.125V23H59.5978V18.38C59.5978 17.64 59.4128 17.075 59.0428 16.685C58.6728 16.285 58.1678 16.085 57.5278 16.085C56.8878 16.085 56.3778 16.285 55.9978 16.685C55.6278 17.075 55.4428 17.64 55.4428 18.38V23H53.7478V18.38C53.7478 17.64 53.5628 17.075 53.1928 16.685C52.8228 16.285 52.3178 16.085 51.6778 16.085C51.0378 16.085 50.5278 16.285 50.1478 16.685C49.7778 17.075 49.5928 17.64 49.5928 18.38V23H47.8828V14.735H49.5928V15.68C49.8728 15.34 50.2278 15.075 50.6578 14.885C51.0878 14.695 51.5478 14.6 52.0378 14.6C52.6978 14.6 53.2878 14.74 53.8078 15.02C54.3278 15.3 54.7278 15.705 55.0078 16.235C55.2578 15.735 55.6478 15.34 56.1778 15.05C56.7078 14.75 57.2778 14.6 57.8878 14.6ZM71.0438 18.665C71.0438 18.975 71.0238 19.255 70.9838 19.505H64.6688C64.7188 20.165 64.9638 20.695 65.4038 21.095C65.8438 21.495 66.3838 21.695 67.0238 21.695C67.9438 21.695 68.5938 21.31 68.9738 20.54H70.8187C70.5688 21.3 70.1138 21.925 69.4538 22.415C68.8038 22.895 67.9938 23.135 67.0238 23.135C66.2338 23.135 65.5238 22.96 64.8938 22.61C64.2738 22.25 63.7838 21.75 63.4238 21.11C63.0738 20.46 62.8988 19.71 62.8988 18.86C62.8988 18.01 63.0688 17.265 63.4088 16.625C63.7588 15.975 64.2438 15.475 64.8638 15.125C65.4938 14.775 66.2138 14.6 67.0238 14.6C67.8038 14.6 68.4988 14.77 69.1088 15.11C69.7188 15.45 70.1938 15.93 70.5338 16.55C70.8738 17.16 71.0438 17.865 71.0438 18.665ZM69.2588 18.125C69.2488 17.495 69.0238 16.99 68.5838 16.61C68.1438 16.23 67.5988 16.04 66.9488 16.04C66.3588 16.04 65.8538 16.23 65.4338 16.61C65.0138 16.98 64.7638 17.485 64.6838 18.125H69.2588ZM78.618 16.13V20.705C78.618 21.015 78.688 21.24 78.828 21.38C78.978 21.51 79.228 21.575 79.578 21.575H80.628V23H79.278C78.508 23 77.918 22.82 77.508 22.46C77.098 22.1 76.893 21.515 76.893 20.705V16.13H75.918V14.735H76.893V12.68H78.618V14.735H80.628V16.13H78.618ZM85.7891 23.135C85.0091 23.135 84.3041 22.96 83.6741 22.61C83.0441 22.25 82.5491 21.75 82.1891 21.11C81.8291 20.46 81.6491 19.71 81.6491 18.86C81.6491 18.02 81.8341 17.275 82.2041 16.625C82.5741 15.975 83.0791 15.475 83.7191 15.125C84.3591 14.775 85.0741 14.6 85.8641 14.6C86.6541 14.6 87.3691 14.775 88.0091 15.125C88.6491 15.475 89.1541 15.975 89.5241 16.625C89.8941 17.275 90.0791 18.02 90.0791 18.86C90.0791 19.7 89.8891 20.445 89.5091 21.095C89.1291 21.745 88.6091 22.25 87.9491 22.61C87.2991 22.96 86.5791 23.135 85.7891 23.135ZM85.7891 21.65C86.2291 21.65 86.6391 21.545 87.0191 21.335C87.4091 21.125 87.7241 20.81 87.9641 20.39C88.2041 19.97 88.3241 19.46 88.3241 18.86C88.3241 18.26 88.2091 17.755 87.9791 17.345C87.7491 16.925 87.4441 16.61 87.0641 16.4C86.6841 16.19 86.2741 16.085 85.8341 16.085C85.3941 16.085 84.9841 16.19 84.6041 16.4C84.2341 16.61 83.9391 16.925 83.7191 17.345C83.4991 17.755 83.3891 18.26 83.3891 18.86C83.3891 19.75 83.6141 20.44 84.0641 20.93C84.5241 21.41 85.0991 21.65 85.7891 21.65ZM102.956 15.68C102.956 16.21 102.831 16.71 102.581 17.18C102.331 17.65 101.931 18.035 101.381 18.335C100.831 18.625 100.126 18.77 99.266 18.77H97.376V23H95.666V12.575H99.266C100.066 12.575 100.741 12.715 101.291 12.995C101.851 13.265 102.266 13.635 102.536 14.105C102.816 14.575 102.956 15.1 102.956 15.68ZM99.266 17.375C99.916 17.375 100.401 17.23 100.721 16.94C101.041 16.64 101.201 16.22 101.201 15.68C101.201 14.54 100.556 13.97 99.266 13.97H97.376V17.375H99.266ZM106.297 15.935C106.547 15.515 106.877 15.19 107.287 14.96C107.707 14.72 108.202 14.6 108.772 14.6V16.37H108.337C107.667 16.37 107.157 16.54 106.807 16.88C106.467 17.22 106.297 17.81 106.297 18.65V23H104.587V14.735H106.297V15.935ZM117.919 18.665C117.919 18.975 117.899 19.255 117.859 19.505H111.544C111.594 20.165 111.839 20.695 112.279 21.095C112.719 21.495 113.259 21.695 113.899 21.695C114.819 21.695 115.469 21.31 115.849 20.54H117.694C117.444 21.3 116.989 21.925 116.329 22.415C115.679 22.895 114.869 23.135 113.899 23.135C113.109 23.135 112.399 22.96 111.769 22.61C111.149 22.25 110.659 21.75 110.299 21.11C109.949 20.46 109.774 19.71 109.774 18.86C109.774 18.01 109.944 17.265 110.284 16.625C110.634 15.975 111.119 15.475 111.739 15.125C112.369 14.775 113.089 14.6 113.899 14.6C114.679 14.6 115.374 14.77 115.984 15.11C116.594 15.45 117.069 15.93 117.409 16.55C117.749 17.16 117.919 17.865 117.919 18.665ZM116.134 18.125C116.124 17.495 115.899 16.99 115.459 16.61C115.019 16.23 114.474 16.04 113.824 16.04C113.234 16.04 112.729 16.23 112.309 16.61C111.889 16.98 111.639 17.485 111.559 18.125H116.134ZM122.932 14.6C123.572 14.6 124.137 14.73 124.627 14.99C125.127 15.24 125.517 15.555 125.797 15.935V14.735H127.522V23.135C127.522 23.895 127.362 24.57 127.042 25.16C126.722 25.76 126.257 26.23 125.647 26.57C125.047 26.91 124.327 27.08 123.487 27.08C122.367 27.08 121.437 26.815 120.697 26.285C119.957 25.765 119.537 25.055 119.437 24.155H121.132C121.262 24.585 121.537 24.93 121.957 25.19C122.387 25.46 122.897 25.595 123.487 25.595C124.177 25.595 124.732 25.385 125.152 24.965C125.582 24.545 125.797 23.935 125.797 23.135V21.755C125.507 22.145 125.112 22.475 124.612 22.745C124.122 23.005 123.562 23.135 122.932 23.135C122.212 23.135 121.552 22.955 120.952 22.595C120.362 22.225 119.892 21.715 119.542 21.065C119.202 20.405 119.032 19.66 119.032 18.83C119.032 18 119.202 17.265 119.542 16.625C119.892 15.985 120.362 15.49 120.952 15.14C121.552 14.78 122.212 14.6 122.932 14.6ZM125.797 18.86C125.797 18.29 125.677 17.795 125.437 17.375C125.207 16.955 124.902 16.635 124.522 16.415C124.142 16.195 123.732 16.085 123.292 16.085C122.852 16.085 122.442 16.195 122.062 16.415C121.682 16.625 121.372 16.94 121.132 17.36C120.902 17.77 120.787 18.26 120.787 18.83C120.787 19.4 120.902 19.9 121.132 20.33C121.372 20.76 121.682 21.09 122.062 21.32C122.452 21.54 122.862 21.65 123.292 21.65C123.732 21.65 124.142 21.54 124.522 21.32C124.902 21.1 125.207 20.78 125.437 20.36C125.677 19.93 125.797 19.43 125.797 18.86ZM136.053 20.87H131.688L130.938 23H129.153L132.888 12.56H134.868L138.603 23H136.803L136.053 20.87ZM135.573 19.475L133.878 14.63L132.168 19.475H135.573ZM143.692 16.13H142.162V23H140.437V16.13H139.462V14.735H140.437V14.15C140.437 13.2 140.687 12.51 141.187 12.08C141.697 11.64 142.492 11.42 143.572 11.42V12.845C143.052 12.845 142.687 12.945 142.477 13.145C142.267 13.335 142.162 13.67 142.162 14.15V14.735H143.692V16.13ZM146.917 15.935C147.167 15.515 147.497 15.19 147.907 14.96C148.327 14.72 148.822 14.6 149.392 14.6V16.37H148.957C148.287 16.37 147.777 16.54 147.427 16.88C147.087 17.22 146.917 17.81 146.917 18.65V23H145.207V14.735H146.917V15.935ZM151.834 13.64C151.524 13.64 151.264 13.535 151.054 13.325C150.844 13.115 150.739 12.855 150.739 12.545C150.739 12.235 150.844 11.975 151.054 11.765C151.264 11.555 151.524 11.45 151.834 11.45C152.134 11.45 152.389 11.555 152.599 11.765C152.809 11.975 152.914 12.235 152.914 12.545C152.914 12.855 152.809 13.115 152.599 13.325C152.389 13.535 152.134 13.64 151.834 13.64ZM152.674 14.735V23H150.964V14.735H152.674ZM154.349 18.86C154.349 18.01 154.519 17.265 154.859 16.625C155.209 15.975 155.689 15.475 156.299 15.125C156.909 14.775 157.609 14.6 158.399 14.6C159.399 14.6 160.224 14.84 160.874 15.32C161.534 15.79 161.979 16.465 162.209 17.345H160.364C160.214 16.935 159.974 16.615 159.644 16.385C159.314 16.155 158.899 16.04 158.399 16.04C157.699 16.04 157.139 16.29 156.719 16.79C156.309 17.28 156.104 17.97 156.104 18.86C156.104 19.75 156.309 20.445 156.719 20.945C157.139 21.445 157.699 21.695 158.399 21.695C159.389 21.695 160.044 21.26 160.364 20.39H162.209C161.969 21.23 161.519 21.9 160.859 22.4C160.199 22.89 159.379 23.135 158.399 23.135C157.609 23.135 156.909 22.96 156.299 22.61C155.689 22.25 155.209 21.75 154.859 21.11C154.519 20.46 154.349 19.71 154.349 18.86ZM163.343 18.83C163.343 18 163.513 17.265 163.853 16.625C164.203 15.985 164.673 15.49 165.263 15.14C165.863 14.78 166.523 14.6 167.243 14.6C167.893 14.6 168.458 14.73 168.938 14.99C169.428 15.24 169.818 15.555 170.108 15.935V14.735H171.833V23H170.108V21.77C169.818 22.16 169.423 22.485 168.923 22.745C168.423 23.005 167.853 23.135 167.213 23.135C166.503 23.135 165.853 22.955 165.263 22.595C164.673 22.225 164.203 21.715 163.853 21.065C163.513 20.405 163.343 19.66 163.343 18.83ZM170.108 18.86C170.108 18.29 169.988 17.795 169.748 17.375C169.518 16.955 169.213 16.635 168.833 16.415C168.453 16.195 168.043 16.085 167.603 16.085C167.163 16.085 166.753 16.195 166.373 16.415C165.993 16.625 165.683 16.94 165.443 17.36C165.213 17.77 165.098 18.26 165.098 18.83C165.098 19.4 165.213 19.9 165.443 20.33C165.683 20.76 165.993 21.09 166.373 21.32C166.763 21.54 167.173 21.65 167.603 21.65C168.043 21.65 168.453 21.54 168.833 21.32C169.213 21.1 169.518 20.78 169.748 20.36C169.988 19.93 170.108 19.43 170.108 18.86Z" fill="#6F0195"/>
<circle cx="244" cy="8" r="8" fill="url(#paint0_linear_2301_139)"/>
<defs>
<linearGradient id="paint0_linear_2301_139" x1="236.277" y1="7.0495" x2="252" y2="7.16832" gradientUnits="userSpaceOnUse">
<stop stop-color="#6F0195"/>
<stop offset="1" stop-color="#FD00FE"/>
</linearGradient>
</defs>
</svg>
