<svg width="66" height="66" viewBox="0 0 66 66" fill="none" xmlns="http://www.w3.org/2000/svg">
<path d="M66 22C66 21.2437 65.3812 20.625 64.625 20.625H46.75C45.9938 20.625 45.375 20.0063 45.375 19.25V1.375C45.375 0.61875 44.7562 0 44 0H22C21.2437 0 20.625 0.61875 20.625 1.375V19.25C20.625 20.0063 20.0063 20.625 19.25 20.625H1.375C0.61875 20.625 0 21.2437 0 22V44C0 44.7562 0.61875 45.375 1.375 45.375H19.25C20.0063 45.375 20.625 45.9938 20.625 46.75V64.625C20.625 65.3812 21.2437 66 22 66H44C44.7562 66 45.375 65.3812 45.375 64.625V46.75C45.375 45.9938 45.9938 45.375 46.75 45.375H64.625C65.3812 45.375 66 44.7562 66 44V22Z" fill="white" fill-opacity="0.4"/>
</svg>
