<svg width="37" height="34" viewBox="0 0 37 34" fill="none" xmlns="http://www.w3.org/2000/svg">
<circle cx="16.5" cy="17.5" r="16" fill="#FD00FE" fill-opacity="0.2" stroke="#6F0195"/>
<path d="M23.8605 12.1752C23.8048 12.1087 23.7353 12.0551 23.6567 12.0184C23.5781 11.9817 23.4924 11.9626 23.4057 11.9627H11.4574L11.0952 9.97323C11.0456 9.70018 10.9017 9.45319 10.6887 9.27534C10.4756 9.09748 10.2069 9.00004 9.92942 9H8.59253C8.43538 9 8.28467 9.06243 8.17355 9.17355C8.06243 9.28467 8 9.43538 8 9.59253C8 9.74968 8.06243 9.90039 8.17355 10.0115C8.28467 10.1226 8.43538 10.1851 8.59253 10.1851H9.92571L11.8188 20.5758C11.8746 20.884 12.0108 21.1719 12.2136 21.4106C11.9337 21.672 11.7316 22.0059 11.6299 22.3752C11.5281 22.7445 11.5306 23.1347 11.6371 23.5027C11.7436 23.8707 11.9499 24.2019 12.2332 24.4598C12.5164 24.7176 12.8656 24.892 13.2419 24.9635C13.6182 25.035 14.007 25.001 14.3651 24.865C14.7232 24.7291 15.0367 24.4966 15.2708 24.1934C15.5049 23.8902 15.6504 23.5281 15.6912 23.1472C15.732 22.7664 15.6666 22.3816 15.5021 22.0357H18.8662C18.7336 22.3132 18.665 22.6169 18.6655 22.9245C18.6655 23.3346 18.7871 23.7356 19.015 24.0766C19.2429 24.4177 19.5668 24.6835 19.9457 24.8405C20.3246 24.9974 20.7416 25.0385 21.1439 24.9585C21.5462 24.8785 21.9157 24.6809 22.2058 24.3909C22.4958 24.1009 22.6933 23.7314 22.7733 23.3291C22.8533 22.9268 22.8123 22.5098 22.6553 22.1308C22.4983 21.7519 22.2325 21.428 21.8915 21.2001C21.5505 20.9722 21.1495 20.8506 20.7393 20.8506H13.5675C13.4288 20.8506 13.2944 20.8019 13.1879 20.7129C13.0814 20.624 13.0094 20.5005 12.9846 20.364L12.7498 19.073H21.3415C21.7578 19.073 22.1608 18.9268 22.4804 18.66C22.8 18.3932 23.0158 18.0228 23.0902 17.6132L23.9908 12.6611C24.0061 12.5755 24.0023 12.4876 23.9798 12.4036C23.9572 12.3197 23.9165 12.2417 23.8605 12.1752ZM14.5178 22.9245C14.5178 23.1003 14.4657 23.2721 14.368 23.4183C14.2703 23.5644 14.1315 23.6783 13.9691 23.7456C13.8067 23.8129 13.628 23.8305 13.4556 23.7962C13.2832 23.7619 13.1248 23.6772 13.0005 23.5529C12.8762 23.4286 12.7916 23.2703 12.7573 23.0979C12.723 22.9255 12.7406 22.7468 12.8079 22.5843C12.8751 22.4219 12.9891 22.2831 13.1352 22.1855C13.2814 22.0878 13.4532 22.0357 13.629 22.0357C13.8647 22.0357 14.0908 22.1293 14.2575 22.296C14.4242 22.4627 14.5178 22.6888 14.5178 22.9245ZM21.6281 22.9245C21.6281 23.1003 21.576 23.2721 21.4783 23.4183C21.3807 23.5644 21.2419 23.6783 21.0795 23.7456C20.917 23.8129 20.7383 23.8305 20.5659 23.7962C20.3935 23.7619 20.2352 23.6772 20.1109 23.5529C19.9866 23.4286 19.9019 23.2703 19.8676 23.0979C19.8333 22.9255 19.8509 22.7468 19.9182 22.5843C19.9855 22.4219 20.0994 22.2831 20.2455 22.1855C20.3917 22.0878 20.5635 22.0357 20.7393 22.0357C20.975 22.0357 21.2011 22.1293 21.3678 22.296C21.5345 22.4627 21.6281 22.6888 21.6281 22.9245ZM21.9244 17.4013C21.8995 17.5383 21.8273 17.662 21.7203 17.751C21.6133 17.84 21.4784 17.8885 21.3393 17.888H12.5343L11.6729 13.1477H22.6954L21.9244 17.4013Z" fill="#6F0195"/>
<circle cx="30.5" cy="6.5" r="6.5" fill="#6F0195"/>
<path d="M29.45 4.75V3.71H31.53V11H30.38V4.75H29.45Z" fill="white"/>
</svg>
