<svg width="47" height="47" viewBox="0 0 47 47" fill="none" xmlns="http://www.w3.org/2000/svg">
<circle cx="23.5" cy="23.5" r="23.5" fill="#FD00FE" fill-opacity="0.1"/>
<path fill-rule="evenodd" clip-rule="evenodd" d="M21.4402 13.5412C22.0173 13.1872 22.679 13 23.3536 13C24.0282 13 24.6899 13.1872 25.2669 13.5412L26.6256 14.3831C28.532 15.5634 30.7031 15.8263 32.8843 16.0911C33.5893 16.1769 34.295 16.2621 34.9934 16.379C34.9934 16.379 35.0087 17.6181 34.9927 18.1803L34.8533 23.0119C34.7332 27.1558 32.9143 31.0847 29.794 33.9401C28.3219 35.2867 26.7991 36.5035 25.0495 37.5143C24.5339 37.8098 23.9558 37.9755 23.3638 37.9975C22.7718 38.0195 22.1833 37.8971 21.6477 37.6407C19.6273 36.6677 17.8383 35.434 16.2048 33.9401C13.0845 31.0847 11.2655 27.1558 11.1462 23.0119L11.0074 18.1958C10.9907 17.6256 11.0074 16.379 11.0074 16.379C11.5744 16.3114 12.152 16.2553 12.7343 16.1992C15.3043 15.9519 17.9597 15.6965 20.1382 14.3479L21.4402 13.5412ZM21.6597 23.8112V19.0816H24.3278V23.8112H28.9969V26.5139H24.3278V31.2435H21.6597V26.5139H16.9906V23.8112H21.6597Z" fill="#6F0195"/>
</svg>
