<svg width="16" height="16" viewBox="0 0 16 16" fill="none" xmlns="http://www.w3.org/2000/svg">
<circle cx="8" cy="8" r="8" fill="#671E83"/>
<path d="M8 7.008C7.8038 7.008 7.61201 7.06618 7.44887 7.17518C7.28574 7.28418 7.15859 7.43911 7.08351 7.62038C7.00843 7.80164 6.98878 8.0011 7.02706 8.19353C7.06534 8.38596 7.15982 8.56272 7.29855 8.70145C7.43728 8.84018 7.61404 8.93466 7.80647 8.97294C7.9989 9.01122 8.19836 8.99157 8.37962 8.91649C8.56089 8.84141 8.71582 8.71426 8.82482 8.55113C8.93382 8.38799 8.992 8.1962 8.992 8C8.992 7.86973 8.96634 7.74073 8.91649 7.62038C8.86664 7.50002 8.79357 7.39067 8.70145 7.29855C8.60933 7.20643 8.49998 7.13336 8.37962 7.08351C8.25927 7.03366 8.13027 7.008 8 7.008ZM11.972 6.028C11.9699 5.7191 11.913 5.41303 11.804 5.124C11.7237 4.9125 11.5995 4.72044 11.4395 4.56047C11.2796 4.40051 11.0875 4.27629 10.876 4.196C10.587 4.08699 10.2809 4.0301 9.972 4.028C9.456 4 9.304 4 8 4C6.696 4 6.544 4 6.028 4.028C5.7191 4.0301 5.41303 4.08699 5.124 4.196C4.9125 4.27629 4.72044 4.40051 4.56047 4.56047C4.40051 4.72044 4.27629 4.9125 4.196 5.124C4.08699 5.41303 4.0301 5.7191 4.028 6.028C4 6.544 4 6.696 4 8C4 9.304 4 9.456 4.028 9.972C4.03231 10.282 4.08911 10.589 4.196 10.88C4.27593 11.0905 4.40005 11.2815 4.56 11.44C4.71928 11.6009 4.91176 11.7251 5.124 11.804C5.41303 11.913 5.7191 11.9699 6.028 11.972C6.544 12 6.696 12 8 12C9.304 12 9.456 12 9.972 11.972C10.2809 11.9699 10.587 11.913 10.876 11.804C11.0882 11.7251 11.2807 11.6009 11.44 11.44C11.5999 11.2815 11.7241 11.0905 11.804 10.88C11.9129 10.5896 11.9698 10.2822 11.972 9.972C12 9.456 12 9.304 12 8C12 6.696 12 6.544 11.972 6.028ZM10.956 9.228C10.9432 9.47484 10.8905 9.71798 10.8 9.948C10.7223 10.1399 10.6069 10.3142 10.4605 10.4605C10.3142 10.6069 10.1399 10.7223 9.948 10.8C9.71581 10.8854 9.47131 10.9327 9.224 10.94H6.776C6.52869 10.9327 6.2842 10.8854 6.052 10.8C5.85364 10.7263 5.67451 10.6087 5.528 10.456C5.38307 10.3125 5.27114 10.1391 5.2 9.948C5.11422 9.71605 5.06824 9.47127 5.064 9.224V6.776C5.06824 6.52873 5.11422 6.28395 5.2 6.052C5.27371 5.85364 5.39131 5.67451 5.544 5.528C5.68813 5.38385 5.86131 5.27204 6.052 5.2C6.2842 5.11456 6.52869 5.06728 6.776 5.06H9.224C9.47131 5.06728 9.71581 5.11456 9.948 5.2C10.1464 5.27371 10.3255 5.39131 10.472 5.544C10.6169 5.6875 10.7289 5.86085 10.8 6.052C10.8854 6.2842 10.9327 6.52869 10.94 6.776V8C10.94 8.824 10.968 8.908 10.956 9.224V9.228ZM10.316 6.252C10.2684 6.12279 10.1933 6.00546 10.0959 5.90809C9.99854 5.81071 9.88121 5.73563 9.752 5.688C9.57459 5.6265 9.38774 5.59672 9.2 5.6H6.8C6.61131 5.60184 6.42443 5.63705 6.248 5.704C6.12077 5.74946 6.00468 5.82149 5.90743 5.91528C5.81019 6.00908 5.73402 6.1225 5.684 6.248C5.62591 6.42615 5.59753 6.61264 5.6 6.8V9.2C5.60397 9.38848 5.63911 9.575 5.704 9.752C5.75163 9.88121 5.82671 9.99854 5.92409 10.0959C6.02146 10.1933 6.13879 10.2684 6.268 10.316C6.43867 10.3788 6.61826 10.4139 6.8 10.42H9.2C9.38869 10.4182 9.57557 10.3829 9.752 10.316C9.88121 10.2684 9.99854 10.1933 10.0959 10.0959C10.1933 9.99854 10.2684 9.88121 10.316 9.752C10.3829 9.57557 10.4182 9.38869 10.42 9.2V6.8C10.4201 6.61112 10.3848 6.42389 10.316 6.248V6.252ZM8 9.528C7.79953 9.528 7.60103 9.48845 7.41586 9.41161C7.2307 9.33477 7.06252 9.22216 6.92095 9.08022C6.77938 8.93828 6.66721 8.7698 6.59086 8.58444C6.51451 8.39908 6.47547 8.20047 6.476 8C6.476 7.69762 6.56572 7.40204 6.73379 7.15067C6.90187 6.89931 7.14075 6.70347 7.42019 6.58793C7.69963 6.4724 8.00706 6.44238 8.30357 6.50166C8.60008 6.56094 8.87234 6.70687 9.08587 6.92096C9.29941 7.13506 9.44462 7.4077 9.50313 7.70436C9.56163 8.00103 9.5308 8.30838 9.41454 8.58752C9.29827 8.86665 9.1018 9.10502 8.85 9.27243C8.59819 9.43985 8.30238 9.52879 8 9.528ZM9.6 6.772C9.51158 6.76264 9.42975 6.72089 9.37027 6.65479C9.3108 6.58869 9.27789 6.50292 9.27789 6.414C9.27789 6.32508 9.3108 6.23931 9.37027 6.17321C9.42975 6.10711 9.51158 6.06536 9.6 6.056C9.68842 6.06536 9.77025 6.10711 9.82973 6.17321C9.8892 6.23931 9.92211 6.32508 9.92211 6.414C9.92211 6.50292 9.8892 6.58869 9.82973 6.65479C9.77025 6.72089 9.68842 6.76264 9.6 6.772Z" fill="white"/>
</svg>
