<svg width="17" height="17" viewBox="0 0 17 17" fill="none" xmlns="http://www.w3.org/2000/svg">
<path d="M8.5 0C3.80552 0 0 3.80552 0 8.5C0 13.1945 3.80552 17 8.5 17C13.1945 17 17 13.1945 17 8.5C17 3.80552 13.1945 0 8.5 0ZM6.41927 12.0231H4.69802V6.48391H6.41927V12.0231ZM5.54802 5.80391C5.00437 5.80391 4.65286 5.41875 4.65286 4.9424C4.65286 4.4563 5.015 4.08266 5.57016 4.08266C6.12531 4.08266 6.46531 4.4563 6.47594 4.9424C6.47594 5.41875 6.12531 5.80391 5.54802 5.80391ZM12.7057 12.0231H10.9845V8.95333C10.9845 8.2388 10.7348 7.75359 10.1123 7.75359C9.63688 7.75359 9.35443 8.08208 9.22958 8.39818C9.18354 8.51062 9.17203 8.67 9.17203 8.82849V12.0222H7.4499V8.25031C7.4499 7.5588 7.42776 6.98062 7.40474 6.48302H8.90021L8.97901 7.25245H9.01354C9.24021 6.8912 9.79536 6.35818 10.7242 6.35818C11.8566 6.35818 12.7057 7.11698 12.7057 8.74792V12.0231Z" fill="#671E83"/>
</svg>
