<svg width="46" height="46" viewBox="0 0 46 46" fill="none" xmlns="http://www.w3.org/2000/svg">
<path d="M4.38462 28.077V43.3077C4.38462 43.7565 4.56291 44.187 4.88028 44.5043C5.19765 44.8217 5.6281 45 6.07692 45H39.9231C40.3719 45 40.8024 44.8217 41.1197 44.5043C41.4371 44.187 41.6154 43.7565 41.6154 43.3077V28.077M1 11.1539V17.9231C1 18.372 1.1783 18.8024 1.49567 19.1198C1.81303 19.4371 2.24348 19.6154 2.69231 19.6154H43.3077C43.7565 19.6154 44.187 19.4371 44.5043 19.1198C44.8217 18.8024 45 18.372 45 17.9231V11.1539M1 11.1539L5.12923 2.86162C5.41307 2.2983 5.84868 1.82551 6.38692 1.49658C6.92516 1.16766 7.54461 0.995692 8.17538 1.00008H37.8246C38.4554 0.995692 39.0748 1.16766 39.6131 1.49658C40.1513 1.82551 40.5869 2.2983 40.8708 2.86162L45 11.1539M1 11.1539H45M26.3846 28.077V45M4.38462 33.1539H26.3846" stroke="white" stroke-width="2" stroke-linecap="round" stroke-linejoin="round"/>
</svg>
